<?xml version="1.0" encoding="UTF-8" standalone="no"?>
<!-- Created with Inkscape (http://www.inkscape.org/) -->

<svg
   width="256"
   height="256"
   viewBox="0 0 67.7333 67.7333"
   version="1.1"
   id="svg6754"
   inkscape:version="1.2.1 (9c6d41e410, 2022-07-14)"
   sodipodi:docname="logo_mapper.svg"
   xml:space="preserve"
   xmlns:inkscape="http://www.inkscape.org/namespaces/inkscape"
   xmlns:sodipodi="http://sodipodi.sourceforge.net/DTD/sodipodi-0.dtd"
   xmlns:xlink="http://www.w3.org/1999/xlink"
   xmlns="http://www.w3.org/2000/svg"
   xmlns:svg="http://www.w3.org/2000/svg"><sodipodi:namedview
     id="namedview6756"
     pagecolor="#ffffff"
     bordercolor="#000000"
     borderopacity="0.25"
     inkscape:showpageshadow="2"
     inkscape:pageopacity="0.0"
     inkscape:pagecheckerboard="0"
     inkscape:deskcolor="#d1d1d1"
     inkscape:document-units="mm"
     showgrid="false"
     inkscape:zoom="2.82843"
     inkscape:cx="64.877"
     inkscape:cy="125.865"
     inkscape:window-width="1920"
     inkscape:window-height="1017"
     inkscape:window-x="-8"
     inkscape:window-y="-8"
     inkscape:window-maximized="1"
     inkscape:current-layer="layer1"
     showguides="true"><sodipodi:guide
       position="25.1354,51.4614"
       orientation="0,-1"
       id="guide1771"
       inkscape:locked="false" /><sodipodi:guide
       position="31.0885,13.2292"
       orientation="0,-1"
       id="guide1773"
       inkscape:locked="false" /><sodipodi:guide
       position="18.5208,51.726"
       orientation="1,0"
       id="guide1775"
       inkscape:locked="false" /><sodipodi:guide
       position="66.2293,67.9204"
       orientation="1,0"
       id="guide1777"
       inkscape:locked="false" /></sodipodi:namedview><defs
     id="defs6751"><filter
       inkscape:menu="Shadows and Glows"
       inkscape:menu-tooltip="Cut out, add inner shadow and colorize some parts of an image"
       style="color-interpolation-filters:sRGB;"
       inkscape:label="Drop Shadow"
       id="filter12333"
       x="-0.458105"
       y="-1.33564"
       width="2.09674"
       height="4.19763"><feColorMatrix
         values="0 0 0 0 0 0 0 0 0 0 0 0 0 0 0 0.21 0.72 0.07 0 0 "
         result="result1"
         id="feColorMatrix12305" /><feColorMatrix
         values="1 0 0 0 0 0 1 0 0 0 0 0 1 0 0 0 0 0 2 0 "
         result="result9"
         id="feColorMatrix12307" /><feComposite
         in2="result9"
         in="SourceGraphic"
         operator="in"
         result="result4"
         id="feComposite12309" /><feFlood
         result="result2"
         flood-color="rgb(0,0,0)"
         id="feFlood12311" /><feComposite
         in2="result9"
         operator="in"
         result="result10"
         id="feComposite12313" /><feComposite
         in2="result4"
         operator="atop"
         id="feComposite12315" /><feGaussianBlur
         stdDeviation="3"
         result="result8"
         id="feGaussianBlur12317" /><feOffset
         dx="3"
         dy="3"
         result="result3"
         in="result8"
         id="feOffset12319" /><feFlood
         flood-opacity="1"
         flood-color="rgb(219,173,62)"
         result="result5"
         id="feFlood12321" /><feMerge
         result="result6"
         id="feMerge12329"><feMergeNode
           in="result5"
           id="feMergeNode12323" /><feMergeNode
           in="result3"
           id="feMergeNode12325" /><feMergeNode
           in="result4"
           id="feMergeNode12327" /></feMerge><feComposite
         in2="SourceGraphic"
         operator="in"
         result="fbSourceGraphic"
         id="feComposite12331" /><feColorMatrix
         result="fbSourceGraphicAlpha"
         in="fbSourceGraphic"
         values="0 0 0 -1 0 0 0 0 -1 0 0 0 0 -1 0 0 0 0 1 0"
         id="feColorMatrix15250" /><feFlood
         id="feFlood15252"
         flood-opacity="0.2"
         flood-color="rgb(0,0,0)"
         result="flood"
         in="fbSourceGraphic" /><feComposite
         in2="fbSourceGraphic"
         id="feComposite15254"
         in="flood"
         operator="in"
         result="composite1" /><feGaussianBlur
         id="feGaussianBlur15256"
         in="composite1"
         stdDeviation="1"
         result="blur" /><feOffset
         id="feOffset15258"
         dx="1"
         dy="1"
         result="offset" /><feComposite
         in2="offset"
         id="feComposite15260"
         in="fbSourceGraphic"
         operator="over"
         result="composite2" /></filter><filter
       style="color-interpolation-filters:sRGB;"
       inkscape:label="Drop Shadow"
       id="filter15248"
       x="-0.133144"
       y="-0.38819"
       width="1.31142"
       height="1.90797"><feFlood
         flood-opacity="0.2"
         flood-color="rgb(0,0,0)"
         result="flood"
         id="feFlood15238" /><feComposite
         in="flood"
         in2="SourceGraphic"
         operator="in"
         result="composite1"
         id="feComposite15240" /><feGaussianBlur
         in="composite1"
         stdDeviation="1"
         result="blur"
         id="feGaussianBlur15242" /><feOffset
         dx="1"
         dy="1"
         result="offset"
         id="feOffset15244" /><feComposite
         in="SourceGraphic"
         in2="offset"
         operator="over"
         result="composite2"
         id="feComposite15246" /></filter><filter
       style="color-interpolation-filters:sRGB;"
       inkscape:label="Drop Shadow"
       id="filter15272"
       x="-0.133144"
       y="-0.38819"
       width="1.31142"
       height="1.90797"><feFlood
         flood-opacity="0.2"
         flood-color="rgb(0,0,0)"
         result="flood"
         id="feFlood15262" /><feComposite
         in="flood"
         in2="SourceGraphic"
         operator="in"
         result="composite1"
         id="feComposite15264" /><feGaussianBlur
         in="composite1"
         stdDeviation="1"
         result="blur"
         id="feGaussianBlur15266" /><feOffset
         dx="1"
         dy="1"
         result="offset"
         id="feOffset15268" /><feComposite
         in="SourceGraphic"
         in2="offset"
         operator="over"
         result="composite2"
         id="feComposite15270" /></filter></defs><g
     inkscape:label="Vrstva 1"
     inkscape:groupmode="layer"
     id="layer1"><image
       width="98.3779"
       height="93.1398"
       preserveAspectRatio="none"
       style="display:none;opacity:0.43;image-rendering:optimizeQuality"
       xlink:href="../../../../../Users/GeftGames/Desktop/OIG.jpg"
       id="image1093"
       x="-15.0455"
       y="-12.8005" /><path
       id="path1673"
       style="opacity:1;fill:#000000;stroke:#000000;stroke-width:0;stroke-linecap:round;stroke-linejoin:round;stroke-miterlimit:6.4;paint-order:fill markers stroke;stroke-dasharray:none"
       d="M 64.5036 33.3726 A 2.15 2.15 0 0 1 64.3976 33.368 A 2.15 2.15 0 0 1 63.9336 33.2403 C 63.9336 33.2403 63.3551 33.0087 62.3223 32.6052 C 61.8059 32.4035 61.1761 32.1592 60.448 31.8787 C 59.7199 31.5982 58.8934 31.2817 57.9846 30.9371 C 57.0758 30.5926 56.0846 30.2199 55.0261 29.8261 C 53.9676 29.4322 52.8418 29.0174 51.6645 28.589 C 51.0759 28.3747 50.4746 28.1569 49.8621 27.9368 C 49.2496 27.7167 48.626 27.4943 47.9935 27.2702 C 47.361 27.046 46.7192 26.8206 46.0706 26.5942 C 45.4219 26.3679 44.7662 26.1408 44.1053 25.9142 C 43.4444 25.6875 42.7787 25.4613 42.1096 25.2362 C 41.4404 25.0111 40.768 24.7871 40.0947 24.5654 C 39.4214 24.3438 38.7471 24.1244 38.0736 23.9081 C 37.4002 23.6918 36.7274 23.4785 36.0577 23.2694 C 35.3881 23.0602 34.7216 22.8551 34.0599 22.6549 C 33.3982 22.4548 32.7413 22.2597 32.0916 22.0705 C 31.4418 21.8813 30.7989 21.6981 30.1651 21.5217 C 29.5313 21.3453 28.9066 21.1755 28.2928 21.0137 C 27.986 20.9328 27.6816 20.8541 27.3797 20.7775 C 27.0779 20.701 26.7786 20.6264 26.4826 20.5543 C 26.1866 20.4822 25.894 20.4125 25.6046 20.345 C 25.3152 20.2776 25.0288 20.2123 24.7468 20.1497 C 24.701 20.1395 24.657 20.1303 24.6114 20.1202 C 24.6446 20.2426 24.6746 20.3645 24.7091 20.4871 C 24.8082 20.8404 24.9122 21.1948 25.0207 21.5496 C 25.1292 21.9044 25.2418 22.2597 25.3581 22.6157 C 25.4745 22.9717 25.5947 23.3286 25.7173 23.6854 C 25.8399 24.0422 25.9651 24.3989 26.0925 24.7561 C 26.2198 25.1133 26.349 25.4707 26.4795 25.8279 C 26.7406 26.5423 27.007 27.2566 27.2717 27.9688 C 27.4078 28.3349 27.5454 28.7006 27.6851 29.0659 C 27.8249 29.4313 27.9665 29.7962 28.1104 30.1599 C 28.2543 30.5237 28.4006 30.8863 28.5492 31.2477 C 28.6977 31.6091 28.8486 31.9695 29.0024 32.3277 C 29.1561 32.686 29.3127 33.0421 29.4721 33.3964 C 29.6315 33.7507 29.7938 34.1032 29.9594 34.4527 C 30.125 34.8022 30.2941 35.149 30.4664 35.4929 C 30.6386 35.8369 30.814 36.178 30.9935 36.5156 C 31.1729 36.8532 31.3562 37.1871 31.5433 37.5176 C 31.7304 37.8481 31.9216 38.1749 32.1169 38.4974 C 32.3122 38.8199 32.5119 39.1381 32.7158 39.4519 C 32.8178 39.6087 32.9206 39.7645 33.0249 39.919 C 33.1291 40.0736 33.2346 40.2268 33.3411 40.3789 C 33.4477 40.531 33.5557 40.682 33.6646 40.8316 C 33.7736 40.9812 33.8834 41.1296 33.9948 41.2766 C 34.1062 41.4235 34.2189 41.569 34.3328 41.7132 C 34.4467 41.8574 34.562 42.0002 34.6785 42.1416 C 34.795 42.283 34.9129 42.4228 35.032 42.5612 C 35.1511 42.6997 35.2714 42.8367 35.3932 42.9721 C 35.515 43.1075 35.6381 43.2413 35.7627 43.3736 C 35.8872 43.5058 36.013 43.6368 36.1404 43.7658 C 36.3287 43.9565 36.5198 44.1467 36.7125 44.3358 C 36.9052 44.5249 37.0997 44.7125 37.2964 44.8986 C 37.4931 45.0846 37.6915 45.2688 37.8917 45.4505 C 38.0919 45.6321 38.2941 45.8114 38.4974 45.9874 C 38.7007 46.1633 38.9054 46.3363 39.1113 46.5052 C 39.3172 46.674 39.5239 46.8388 39.7319 46.9992 C 39.94 47.1596 40.149 47.3157 40.3588 47.4664 C 40.5685 47.617 40.7792 47.762 40.9903 47.9015 C 41.2013 48.041 41.413 48.175 41.6248 48.302 C 41.8367 48.4289 42.0488 48.549 42.261 48.6621 C 42.3671 48.7187 42.4732 48.7736 42.5793 48.8265 C 42.6854 48.8793 42.7911 48.93 42.8971 48.9789 C 43.0032 49.0279 43.1095 49.0751 43.2155 49.12 C 43.3213 49.1649 43.427 49.2075 43.5327 49.2482 C 43.6385 49.2888 43.7445 49.3276 43.85 49.3639 C 43.9556 49.4002 44.061 49.434 44.1663 49.4657 C 44.2716 49.4974 44.3766 49.5271 44.4815 49.5541 C 44.5865 49.5811 44.6917 49.6054 44.7962 49.6275 C 44.9008 49.6495 45.0047 49.6694 45.1089 49.6864 C 45.213 49.7034 45.3169 49.718 45.4205 49.7298 C 45.5241 49.7416 45.6275 49.7503 45.7305 49.7567 C 45.8336 49.763 45.9366 49.7667 46.0391 49.7675 C 46.1231 49.7681 46.2093 49.7665 46.2974 49.7623 C 46.3856 49.7582 46.4756 49.7515 46.5677 49.7427 C 46.6598 49.7339 46.754 49.7229 46.8499 49.7096 C 46.9457 49.6964 47.0434 49.6813 47.1429 49.6636 C 47.2423 49.646 47.3434 49.6261 47.4462 49.6042 C 47.549 49.5824 47.6539 49.5583 47.7599 49.5324 C 47.9719 49.4805 48.19 49.4209 48.4136 49.3536 C 48.6371 49.2862 48.8658 49.2111 49.0993 49.1293 C 49.3329 49.0475 49.571 48.9587 49.813 48.8637 C 50.0549 48.7686 50.3006 48.6676 50.5494 48.5603 C 50.7982 48.4531 51.0503 48.3402 51.3044 48.2219 C 51.5584 48.1036 51.8145 47.9796 52.0723 47.8513 C 52.3301 47.7231 52.5895 47.5901 52.8495 47.4529 C 53.1094 47.3158 53.3698 47.1746 53.6303 47.0297 C 53.8909 46.8848 54.1516 46.7363 54.4111 46.5848 C 54.6707 46.4332 54.9293 46.2784 55.1863 46.1212 C 55.4433 45.9641 55.6987 45.8043 55.9516 45.6427 C 56.2045 45.4811 56.4552 45.3177 56.7025 45.1528 C 56.9497 44.9879 57.1937 44.8213 57.4337 44.6541 C 57.6737 44.4869 57.9102 44.32 58.1427 44.1534 C 58.3752 43.9868 58.6039 43.8205 58.8279 43.6557 C 59.2759 43.3263 59.7057 43.0024 60.1136 42.6884 C 60.5216 42.3743 60.9076 42.0705 61.2676 41.7825 C 61.6275 41.4944 61.9615 41.2221 62.2655 40.9706 C 62.5693 40.7191 62.843 40.4883 63.083 40.2838 C 63.3229 40.0794 63.5289 39.9015 63.6969 39.7547 C 64.0328 39.461 64.2168 39.2932 64.2168 39.2932 A 2.15 2.15 0 0 1 64.5196 39.0813 L 64.5036 33.3726 z " /><path
       id="path2050"
       style="opacity:1;fill:#000000;stroke:#000000;stroke-width:0;stroke-linecap:round;stroke-linejoin:round;stroke-miterlimit:6.4;stroke-dasharray:none;paint-order:fill markers stroke"
       d="m 64.426,5.55625 c 0,0 -8.0894,6.33775 -16.4564,6.40735 -13.1003,0.109 -18.1745,-4.2109 -21.2482,-5.42343 -0.018,0.0213 -0.014,0.0166 -0.039,0.047 -0.078,0.0956 -0.1898,0.23469 -0.325,0.40773 -0.1352,0.17305 -0.2939,0.37997 -0.4656,0.61237 -0.1718,0.2324 -0.3565,0.49014 -0.5442,0.76378 -0.094,0.13681 -0.1871,0.27971 -0.2785,0.42529 -0.091,0.14559 -0.1815,0.29375 -0.2682,0.44235 -0.087,0.14861 -0.1701,0.29751 -0.2496,0.44339 -0.079,0.14587 -0.1549,0.28896 -0.2248,0.42632 -0.07,0.1374 -0.1343,0.2691 -0.1923,0.3923 -0.058,0.1231 -0.1098,0.2378 -0.1534,0.341 -0.044,0.1032 -0.079,0.1949 -0.106,0.2724 -0.027,0.077 -0.045,0.1405 -0.053,0.1865 -0.027,0.161 -0.051,0.3229 -0.072,0.4852 -0.021,0.1623 -0.04,0.3254 -0.055,0.4889 -0.015,0.1635 -0.028,0.3278 -0.038,0.4925 -0.01,0.1647 -0.017,0.3297 -0.022,0.4956 0,0.1658 -0.01,0.3322 -0.01,0.4992 4e-4,0.1669 0,0.3343 0.01,0.5022 0.01,0.168 0.013,0.3365 0.023,0.5054 0.01,0.169 0.023,0.3381 0.037,0.508 0.01,0.078 0.016,0.1561 0.023,0.2341 0.095,0.019 0.189,0.037 0.2853,0.057 0.2797,0.057 0.563,0.1176 0.8495,0.1803 0.2865,0.063 0.5762,0.1279 0.8692,0.1953 0.293,0.068 0.5895,0.1374 0.8889,0.2093 0.2993,0.072 0.6014,0.1461 0.9069,0.2222 0.6109,0.1523 1.2343,0.3124 1.8686,0.4796 0.6343,0.1672 1.2779,0.3422 1.9296,0.5235 0.6517,0.1813 1.3114,0.3691 1.9766,0.5627 0.6653,0.1937 1.3361,0.3928 2.0113,0.5969 0.6751,0.2041 1.3542,0.413 2.0355,0.6258 0.6813,0.2128 1.3648,0.4294 2.0485,0.6491 0.6836,0.2196 1.3676,0.4424 2.05,0.6671 0.6823,0.2247 1.3629,0.4512 2.0402,0.679 0.6772,0.2279 1.3511,0.457 2.0195,0.6863 0.6684,0.2293 1.3316,0.459 1.9874,0.6878 0.6559,0.2289 1.3042,0.4566 1.9436,0.6832 0.6394,0.2265 1.2697,0.4519 1.8888,0.6743 0.619,0.2225 1.2267,0.4424 1.8216,0.6589 1.1896,0.433 2.3269,0.8522 3.3961,1.2501 1.0693,0.3979 2.0707,0.7744 2.9885,1.1224 0.9177,0.348 1.7521,0.6676 2.4872,0.9508 0.735,0.2833 1.3706,0.5301 1.8918,0.7338 0.3757,0.1468 0.3354,0.1322 0.5861,0.231 z"
       sodipodi:nodetypes="cscsssssssssssssssssssscsssssssssssssssssssssscc" /><path
       id="path2034"
       style="opacity:1;fill:#000000;stroke:#000000;stroke-width:0;stroke-linecap:round;stroke-linejoin:round;stroke-miterlimit:6.4;stroke-dasharray:none;paint-order:fill markers stroke"
       d="m 30.9464,44.3673 c -0.1183,0.022 -0.2225,0.041 -0.3534,0.065 -0.269,0.05 -0.5635,0.1067 -0.8796,0.1685 -0.316,0.062 -0.6536,0.1289 -1.0087,0.2015 -0.3551,0.073 -0.7276,0.1506 -1.1136,0.2336 -0.386,0.083 -0.7859,0.1711 -1.1948,0.2641 -0.2044,0.047 -0.4113,0.094 -0.6201,0.1436 -0.2088,0.049 -0.4195,0.1002 -0.6315,0.152 -0.212,0.052 -0.4253,0.1045 -0.6392,0.1586 -0.2139,0.054 -0.4282,0.1096 -0.6429,0.1659 -0.2146,0.056 -0.4297,0.1138 -0.6439,0.1721 -0.2141,0.058 -0.4273,0.1172 -0.6397,0.1772 -0.2124,0.06 -0.4236,0.1209 -0.6331,0.1824 -0.2094,0.062 -0.4169,0.1237 -0.6221,0.1866 -0.2053,0.063 -0.4084,0.1262 -0.6083,0.1902 -0.1998,0.064 -0.3964,0.1289 -0.5896,0.1938 -0.1932,0.065 -0.3826,0.1302 -0.5679,0.1958 -0.1854,0.066 -0.3669,0.1313 -0.5431,0.1974 -0.1763,0.066 -0.3472,0.1325 -0.5132,0.199 -0.1659,0.066 -0.3267,0.1329 -0.4811,0.1994 -0.1544,0.067 -0.3028,0.1331 -0.4444,0.1995 -0.1417,0.066 -0.2764,0.1329 -0.4041,0.199 -0.1274,0.066 -0.2593,0.1375 -0.3953,0.2149 -0.1361,0.078 -0.2768,0.161 -0.4207,0.2491 -0.1439,0.088 -0.2915,0.1812 -0.4423,0.2791 -0.1509,0.098 -0.3051,0.2002 -0.462,0.3069 -0.1569,0.1068 -0.3165,0.2176 -0.4786,0.3323 -0.162,0.1147 -0.3262,0.2333 -0.4924,0.355 -0.1663,0.1217 -0.3343,0.2468 -0.5039,0.3747 -0.1696,0.1278 -0.3406,0.2586 -0.5126,0.3917 -0.172,0.1331 -0.3453,0.2682 -0.5188,0.4056 -0.1736,0.1375 -0.3473,0.2773 -0.5215,0.4181 -0.1741,0.1409 -0.3486,0.283 -0.5224,0.4263 -0.1738,0.1434 -0.3472,0.2876 -0.5199,0.4326 -0.1726,0.145 -0.3441,0.2909 -0.5147,0.4366 -0.1705,0.1457 -0.3399,0.2917 -0.5074,0.4372 -0.1675,0.1455 -0.333,0.2907 -0.49664,0.4351 -0.1636,0.1445 -0.32542,0.288 -0.4842,0.4305 -0.31758,0.285 -0.62572,0.5648 -0.92191,0.8367 -0.29619,0.2719 -0.57999,0.5357 -0.84956,0.7881 -0.26957,0.2525 -0.52503,0.4938 -0.76275,0.7204 -0.23771,0.2265 -0.45772,0.4383 -0.65835,0.6325 -0.20064,0.1941 -0.3817,0.3707 -0.54002,0.5261 -0.15833,0.1553 -0.29437,0.2894 -0.40515,0.3994 -0.22155,0.22 -0.34261,0.3431 -0.34261,0.3431 -0.0878,0.089 -0.18328,0.1704 -0.28525,0.2429 -0.1021,0.072 -0.21035,0.136 -0.3235,0.1897 -0.11294,0.054 -0.23034,0.097 -0.35088,0.1307 -0.0681,0.016 -0.13689,0.029 -0.20619,0.038 l -0.0284,5.176 c 0,0 8.89101,-4.0283 18.08661,-4.0219 9.1955,0.01 18.2551,4.661 27.3576,4.5655 9.1024,-0.096 15.3746,-6.7721 15.4099,-11.7884 l -0.023,-8.2502 c -0.1842,0.1503 -0.3541,0.2916 -0.554,0.4517 -0.3835,0.3071 -0.7949,0.6307 -1.2299,0.9658 -0.2175,0.1675 -0.4409,0.3382 -0.6697,0.5106 -0.2288,0.1724 -0.4627,0.3465 -0.7018,0.5224 -0.2391,0.1759 -0.4834,0.3533 -0.7317,0.5313 -0.2483,0.1779 -0.5011,0.3567 -0.7576,0.5353 -0.2565,0.1787 -0.5164,0.358 -0.7793,0.5375 -0.2629,0.1794 -0.5285,0.3588 -0.7973,0.5374 -0.2689,0.1786 -0.5407,0.3566 -0.815,0.5328 -0.2743,0.1761 -0.5511,0.3503 -0.8304,0.5224 -0.2793,0.1721 -0.5612,0.3416 -0.8449,0.508 -0.2838,0.1664 -0.5696,0.3297 -0.8573,0.4889 -0.2878,0.1591 -0.5774,0.3143 -0.8687,0.4645 -0.2913,0.1503 -0.5847,0.2954 -0.879,0.4351 -0.2944,0.1398 -0.5899,0.274 -0.8868,0.4016 -0.1485,0.064 -0.2975,0.126 -0.4465,0.1865 -0.149,0.061 -0.298,0.1193 -0.4475,0.1762 -0.1495,0.057 -0.2991,0.1122 -0.4491,0.1654 -0.1499,0.053 -0.3003,0.1047 -0.4506,0.154 -0.1503,0.049 -0.3005,0.096 -0.4511,0.1416 -0.1507,0.045 -0.3013,0.088 -0.4522,0.1287 -0.1509,0.041 -0.3021,0.08 -0.4532,0.1157 -0.1511,0.036 -0.302,0.07 -0.4532,0.1018 -0.1512,0.032 -0.3025,0.061 -0.4537,0.087 -0.1513,0.027 -0.3025,0.051 -0.4537,0.072 -0.1513,0.021 -0.3025,0.04 -0.4538,0.056 -0.1512,0.016 -0.3026,0.029 -0.4537,0.04 -0.1511,0.011 -0.3022,0.018 -0.4532,0.023 -0.1509,0 -0.3014,0.01 -0.4522,0.01 -0.1726,0 -0.344,-0.01 -0.5141,-0.015 -0.1701,-0.01 -0.3389,-0.022 -0.5065,-0.038 -0.1676,-0.016 -0.3341,-0.036 -0.4992,-0.059 -0.1651,-0.023 -0.3288,-0.05 -0.4914,-0.081 -0.1626,-0.03 -0.324,-0.063 -0.4842,-0.1 -0.1602,-0.037 -0.3193,-0.076 -0.477,-0.1189 -0.1577,-0.043 -0.3144,-0.089 -0.4697,-0.1375 -0.1553,-0.049 -0.3091,-0.1 -0.462,-0.1539 -0.1529,-0.054 -0.3048,-0.1111 -0.4553,-0.1706 -0.1504,-0.059 -0.2994,-0.122 -0.4475,-0.1865 -0.1481,-0.065 -0.2951,-0.1313 -0.4408,-0.2005 -0.1457,-0.069 -0.2902,-0.1404 -0.4336,-0.214 -0.1433,-0.074 -0.2853,-0.1496 -0.4263,-0.2274 -0.141,-0.078 -0.2809,-0.1576 -0.4196,-0.2392 -0.1387,-0.082 -0.276,-0.1645 -0.4124,-0.2496 -0.1363,-0.085 -0.2716,-0.1721 -0.4056,-0.2605 -0.1341,-0.088 -0.2667,-0.1784 -0.3985,-0.2697 -0.1317,-0.091 -0.2627,-0.1841 -0.3922,-0.278 -0.1295,-0.094 -0.2578,-0.189 -0.385,-0.2853 -0.1272,-0.096 -0.2533,-0.1936 -0.3783,-0.292 -0.2499,-0.1967 -0.4953,-0.3976 -0.7363,-0.601 -0.2411,-0.2033 -0.4773,-0.409 -0.7096,-0.6165 -0.2322,-0.2074 -0.4601,-0.4164 -0.6836,-0.6258 -0.2236,-0.2093 -0.4429,-0.419 -0.6579,-0.6278 -0.215,-0.2088 -0.426,-0.4168 -0.6325,-0.6227 -0.2065,-0.206 -0.4085,-0.4101 -0.6067,-0.6108 -0.1509,-0.1529 -0.3,-0.3073 -0.447,-0.4631 -0.147,-0.1557 -0.292,-0.3132 -0.4351,-0.4718 -0.1431,-0.1585 -0.2844,-0.3183 -0.4237,-0.4795 -0.1393,-0.1612 -0.2768,-0.3236 -0.4124,-0.4873 -0.1356,-0.1638 -0.269,-0.3289 -0.401,-0.4951 -0.01,-0.01 -0.011,-0.014 -0.017,-0.021 z"
       sodipodi:nodetypes="cssssssssssssssssssssssssssssssssssssssssssscssccccsccsssssssssssssssssssssssssssssssssssssssssssssssssssssssssssscc" /><path
       id="path2055"
       style="opacity:1;fill:#000000;stroke:#000000;stroke-width:0;stroke-linecap:round;stroke-linejoin:round;stroke-miterlimit:6.4;paint-order:fill markers stroke;stroke-dasharray:none"
       d="M 18.7854 4.56406 C 9.34413 4.68549 4.36338 11.2245 3.96875 16.1396 L 3.76308 53.4815 C 3.79971 53.4465 3.82948 53.4175 3.86695 53.3818 C 4.11485 53.1455 4.3802 52.8941 4.66121 52.6309 C 4.94223 52.3677 5.23883 52.0926 5.54747 51.8092 C 5.8561 51.5259 6.17684 51.2342 6.50761 50.9375 C 6.83839 50.6407 7.17792 50.339 7.52409 50.0352 C 7.69717 49.8833 7.87181 49.7309 8.04809 49.5784 C 8.22437 49.4259 8.40236 49.2734 8.58139 49.121 C 8.76042 48.9686 8.94058 48.8162 9.12192 48.6647 C 9.30327 48.5132 9.48595 48.3624 9.66918 48.2126 C 9.8524 48.0627 10.0364 47.9141 10.2211 47.7666 C 10.4057 47.6191 10.5909 47.4727 10.7766 47.3284 C 10.9623 47.184 11.1485 47.0415 11.3347 46.901 C 11.5209 46.7606 11.707 46.6224 11.8933 46.4866 C 12.0797 46.3508 12.2659 46.2175 12.452 46.0871 C 12.638 45.9567 12.8237 45.829 13.009 45.7047 C 13.1943 45.5804 13.3794 45.4593 13.5635 45.3419 C 13.7476 45.2246 13.9309 45.1111 14.1134 45.0014 C 14.2958 44.8917 14.4771 44.7859 14.6575 44.6846 C 14.7477 44.634 14.8377 44.5847 14.9273 44.5363 C 15.0169 44.4879 15.1065 44.4408 15.1955 44.3947 C 15.2842 44.3487 15.3742 44.3029 15.4652 44.2578 C 15.5562 44.2126 15.6481 44.1682 15.7412 44.1239 C 15.9273 44.0353 16.1173 43.9483 16.3111 43.863 C 16.505 43.7776 16.7026 43.6935 16.9034 43.6113 C 17.1041 43.5291 17.3079 43.4486 17.5147 43.3694 C 17.7215 43.2903 17.9311 43.213 18.1431 43.1369 C 18.3551 43.0608 18.5696 42.9858 18.7859 42.9126 C 19.0023 42.8394 19.2203 42.7675 19.4402 42.6971 C 19.66 42.6268 19.8817 42.558 20.1042 42.4904 C 20.3267 42.4228 20.5501 42.3564 20.7744 42.2915 C 20.9987 42.2265 21.2236 42.1631 21.4488 42.1008 C 21.6741 42.0384 21.8999 41.9772 22.1253 41.9173 C 22.3506 41.8575 22.5755 41.799 22.8002 41.7416 C 23.0248 41.6842 23.2489 41.6277 23.472 41.5727 C 23.695 41.5176 23.9174 41.4637 24.1381 41.4109 C 24.5794 41.3053 25.0148 41.2045 25.4413 41.1076 C 25.8679 41.0106 26.2848 40.9182 26.6878 40.8316 C 27.0907 40.745 27.4797 40.664 27.8505 40.5882 C 28.0055 40.5566 28.1425 40.5301 28.2908 40.5004 C 28.2313 40.401 28.1711 40.302 28.1125 40.2022 C 28.006 40.0207 27.901 39.8383 27.7973 39.6555 C 27.5898 39.2898 27.3876 38.9217 27.1906 38.5511 C 26.9936 38.1805 26.8017 37.8074 26.6144 37.4329 C 26.4271 37.0583 26.2444 36.6824 26.0661 36.3048 C 25.8878 35.9271 25.7137 35.5481 25.5437 35.1684 C 25.3736 34.7887 25.2075 34.4078 25.045 34.0269 C 24.8825 33.6459 24.7238 33.2645 24.568 32.8833 C 24.4122 32.502 24.2594 32.1208 24.1096 31.7402 C 23.9599 31.3596 23.8133 30.9798 23.6688 30.6007 C 23.5243 30.2216 23.382 29.8436 23.242 29.4669 C 22.9805 28.7634 22.7094 28.0465 22.4374 27.3172 C 22.3014 26.9526 22.1655 26.5845 22.0302 26.2139 C 21.8948 25.8433 21.7602 25.4699 21.6276 25.0936 C 21.4951 24.7172 21.3645 24.3379 21.2369 23.9562 C 21.1094 23.5744 20.9847 23.1902 20.8644 22.8033 C 20.744 22.4163 20.6281 22.0266 20.5171 21.6349 C 20.4616 21.439 20.4071 21.2428 20.3543 21.0457 C 20.3016 20.8487 20.2506 20.6507 20.2008 20.4525 C 20.1511 20.2543 20.1026 20.0559 20.0561 19.8567 C 20.0097 19.6574 19.9652 19.4575 19.9223 19.2572 C 19.8794 19.0569 19.8384 18.856 19.7993 18.6547 C 19.7603 18.4533 19.7231 18.2513 19.6882 18.049 C 19.6533 17.8467 19.6206 17.6441 19.59 17.4408 C 19.5595 17.2375 19.5307 17.0336 19.5048 16.8295 C 19.4788 16.6253 19.4555 16.4206 19.4345 16.2155 C 19.4135 16.0105 19.395 15.8049 19.3792 15.599 C 19.3634 15.3932 19.3502 15.1872 19.3399 14.9805 C 19.3296 14.7738 19.3223 14.5668 19.3177 14.3593 C 19.3131 14.1519 19.3116 13.9438 19.313 13.7356 C 19.3145 13.5274 19.3188 13.3187 19.3265 13.1098 C 19.3342 12.9009 19.3453 12.692 19.3595 12.4824 C 19.3738 12.2729 19.3911 12.0627 19.4123 11.8525 C 19.4334 11.6423 19.4579 11.4318 19.4861 11.221 C 19.5144 11.0102 19.5462 10.7993 19.5818 10.588 C 19.6015 10.4706 19.6244 10.3545 19.6494 10.2402 C 19.6745 10.1259 19.7022 10.0131 19.7321 9.90172 C 19.762 9.79034 19.7939 9.68054 19.8282 9.57203 C 19.8626 9.46351 19.8994 9.35636 19.9378 9.2506 C 19.9762 9.14484 20.0167 9.04054 20.0587 8.93744 C 20.1008 8.83434 20.1442 8.73258 20.1895 8.63203 C 20.2348 8.53148 20.2819 8.43196 20.33 8.33386 C 20.3782 8.23576 20.4278 8.13867 20.4783 8.04292 C 20.5795 7.85142 20.6847 7.66495 20.793 7.48223 C 20.9014 7.29951 21.0129 7.12059 21.1253 6.94583 C 21.2377 6.77107 21.3512 6.60031 21.4643 6.43268 C 21.5775 6.26506 21.6901 6.101 21.8007 5.93969 C 21.9114 5.77838 22.0213 5.62142 22.1289 5.47098 C 22.2364 5.32055 22.3417 5.17639 22.4431 5.03949 C 22.4439 5.03836 22.4443 5.03751 22.4451 5.03639 C 21.1882 4.72193 19.9636 4.54891 18.7854 4.56406 z " /><g
       id="path1779"
       style="opacity:0.43"><path
         style="color:#000000;fill:#000000;fill-opacity:0;stroke-width:4.3;stroke-linecap:round;stroke-linejoin:round;stroke-miterlimit:6.4;-inkscape-stroke:none;paint-order:fill markers stroke"
         d="m 3.55467,22.4506 c 0,0 2.56896,-4.9646 13.28323,-5.5191 10.7143,-0.5545 47.8947,14.3123 47.8947,14.3123"
         id="path2016" /></g><g
       id="path1781"
       style="opacity:0.43"><path
         style="color:#000000;fill:#000000;fill-opacity:0;stroke-width:4.3;stroke-linecap:round;stroke-linejoin:round;stroke-miterlimit:6.4;-inkscape-stroke:none;paint-order:fill markers stroke"
         d="m 65.6679,40.8787 c 0,0 -12.1334,11.0951 -19.6442,11.0383 -4.4013,-0.033 -8.32,-3.5095 -11.4123,-6.6416 C 30.1578,40.7645 27.4652,34.66 25.2569,28.7181 23.1521,23.0548 20.699,16.9026 21.7022,10.9447 22.0805,8.69814 25.1634,5.05139 25.1634,5.05139"
         id="path2028" /></g><g
       id="path1945"
       style="opacity:0.43"><path
         style="color:#000000;fill:#000000;fill-opacity:0;stroke-width:4.3;stroke-linecap:round;stroke-linejoin:round;stroke-miterlimit:6.4;-inkscape-stroke:none;paint-order:fill markers stroke"
         d="m 31.9921,42.0012 c 0,0 -10.9253,1.7748 -15.809,4.3032 C 11.2994,48.8328 3.36759,56.8748 3.36759,56.8748"
         id="path2022" /></g></g></svg>
