<svg width="200mm" height="150mm" viewBox="0 0 200 150" version="1.1" xmlns="http://www.w3.org/2000/svg" style="margin: auto;position: relative; transform: scale(1) (0px, 0px)">
	<!--<sodipodi:namedview id="namedview7" pagecolor="#ffffff" bordercolor="#000000" borderopacity="0" inkscape:showpageshadow="1" inkscape:pageopacity="0.4" inkscape:pagecheckerboard="0" inkscape:deskcolor="#d1d1d1" inkscape:document-units="mm" showgrid="false" inkscape:zoom="0.52724989" inkscape:cx="418.20777" inkscape:cy="53.105749" inkscape:window-width="1920" inkscape:window-height="1017" inkscape:window-x="-8" inkscape:window-y="-8" inkscape:window-maximized="1" inkscape:current-layer="layer1"/>-->
	<!--<defs id="defs2"/>-->
	<g label="Vrstva 1" groupmode="layer" id="layer1" style="display:inline">
		<!--<image width="275.83582" height="155.15767" preserveAspectRatio="none" href="Bez%20n%C3%A1zvu.png" id="image585" x="-11.281191" y="0.21433729" style="display:none"/>-->
		<path style="display:inline; fill:#00ffff; fill-opacity: 1; stroke-width:0.264583;" d="m180.7 81.5.5-.5.8-.4.1-.2.4.3 1-.4.3.2v.9l.8.2.7-.4.5.2 1-.6.3.2.6-.5.5.3v.3h.9l.4-.1 1.1.7.3.3h.8l1.8-1.6h.6l.6-.6h1.8l-.4-.7.4-.2v-.5l.7-.3v-1l-.6-.4-.1-.5h-.4v-.8l-.3-.2.2-.3-.2-.3v-.3l.3-.3-.3-1.5-.4-.2v-.5l-.3-.1.2-.6-.5-1v-.7l-.4-.5.3-.4-.3-.8.3-.5-.3-.5h-.7l-.5-.5-.4.2-.6-.1-.6.6h-.6l-.1-.4-.5-.2h-.6v-.6l-1.6-.7-1.3-.3-1.8-1.5V61l-.8-.3-.1-1.3-.6-1v-.5l-.6-1.3-.1-1-1-1 .2-.3 1-1-.3-.6.7-.4.4.2V52l-.4-.4-1-.2-.4-1.4.2-.7.3-.8-.3-.3.2-.9-.4-.1-.4.3-1-.7-.2.1v1l.4.3-.8.7h-.5l-1.6-.4-.5-.5-1-.4V47h-1l-.3-.4h-.4v-.8l-1.9.4-1.5-.3-.5-.6-1.1-.2v.6h.7l.1.4h-.6v.3l.6.1-.7.4-.4.2h-1.3l-1.1-1-.1-1v-.7l-.4-.8-.9-.1-.7-.2-.4-.2-.7.3-.5-.4.2-1-.4-1-.7.2-.4-.4h-.8l-.3.3.3.5-.2.3-.6.3-.5-.8-.6-.1-.1-.4-.9.4-.7-.6-.5-1 .4-.8-.8-.7-.4-1.2-.8-.1-.2-1h-.5l-.7-.6-1.6 1.2v1.4l.4.6.8-.9.6.3.4.7-.2.8-.2.4.3.5h-.2l-.6-.4h-1.3v-.5l-1 .4-.1.7-.8-.4-.6.4-1.9 2h-1.6l-1.3.6-.4-.8-1-.6-.8-.5.5-.7-.4-.7h-1.6l-.2-.6-1-.2.3-.7s-.5-.4-.4-.5l.1-.5-.3-.7-.4-.7v-.5l-.6-1-.9-.8v-.7l-1.4-1.5-.9-.2-.6 1.1-1.4-.5-.4-1.8-1.6-.5-.8-1.6.5-1.1 1 .2 1.2-.6 1.2-.2.3-.4h1.6l.8-1.9 1 .6 1.3-1 .2-1.4-.3-.4V21l-2-1.3.2-1.5.4-.2v-.4l.8-1.4-.4-.3h-1l-.1-1.3-1.8-.7V16l-2 2s-1.9 1.2-2 1.1l-.7-.5-.2-.6h-.5l-1.5.7-2-.5h-1.6l-1.4.7-.3-.2v1l-.8.5-.7-.6.3-.3-.5-1h-.8l-.7-.6h-1.5l-.1 1.4h-.8l-.3-1.4-.3-.2.6-.2v-1l.4-1-.3-.1-.7-.2.2-.7h.5l.1-.4-1.2-.1-.8.7-1 .3-1.2-.3-.3-.7h-.8l-.9-1-.6-.3-.1-.5-.5-.8-.6-.3v-1l.3-.7-1-.4-.3.5h-.8l-.4.4h-.7l-1-1.3h-.7v-.8l-1.4-.1-.2.4-.7-.4h-.8l-.8-.7h-.4l-.3-.6-.4.3-.8-.8-1 .8-2-1.4-.8-.1-.7-.8h-1l-.6.5-.1.6-1 .5-.4 1 .9.9 1.2.7.1.4h.7l.6 1.5v1.2l.5 1.1.4.2-.2 1.3.8 1 .6.1.4-.4.2.8 1 .4h.6v.5l.4.2.4 1v1.1l-.5.7-.4.2v.3l.5.4v.5l.5.4.6.7 33.7 58 42.7 5.3 2.3-2-.3-1.4z" id="path498" label="slezko+enkavy"/>
		<path style="display:inline; fill:#000080; fill-opacity: 1; stroke-width:0.264583;" d="m95.8 151 1.3.5.8-.5.3-1.2.3-.7s-.4-1.6-.2-1.6l1.1-1.3.6-.7-.2-1.4.9-.4.2-1.1 1.2-2 .3-.8.8-.6.5-.6 1-.3v-1l.9-.7v-2l2.6-1.3.6-.8.4-.2.9-1.1 1-.1 1 .5.5-.1 1.3.8.6-.2.3.6s1 .8 1.3.8h.7l.7 1 1.6 1.4.8-.3.8.3 1.9-1.2.2-.8.4.1.5-.7 1.5.5 1.5 1.7.5-.4-.1.7.4.3 1.3-.6v-.8s.3-.2.4 0l.6.5 1-.2.8-1.2h.6l1-1.1 2-.1.9-.5h.8l1-1.1.6-.4 1.1-1.7 1.3-1 .2-1h3.7l.8.4c.2 0 .8-.5.8-.5l.1-1 .8-1.9-.2-1.3.8-.8-.1-1.5.8-.9 1.1-.2h1.8l.3-.4h.4l.5.6h1l.2-.4h.8l1.4-1 1-1.6v-.4l1.4-2.2-.3-2 .5-.2-.7-1.2.5-.8v-.7l.8-.5-.1-1 .2-1.5.8-1.2-.1-.6.4-.5v-.9l-.6-.2.2-1.3.6-.4.2-.4 1.1-.8V98l3.1-.5 3-.8.3-.5 3-1 .7-.4 1.9-3.2s-.6-2.2-.5-2.3l.5-.2 1.4.6.8-.7 1.1-.8v-.5l1-1V86l1.5-1-.1-.6h.5l.1-.6h.5l.3-.5-.9-1.2.5-.7-.4-.2-.3.6-.1 1.5-1.8 1-1.2.3-1.3-.7-.5-.8v-.5l-.6-1v-.9l-.8-1.5-.5-.6-.2-.8-1-1.8-.5-.3V73l-.6-1.2.1-.5h.5l-.1-1 .3-1.5-.6-.7v-.7l-1-1.5-.5-.3-.6-.9v-1c0-.3-.8-1.4-.8-1.4v-2.2l.4-.7-.6-.4.1-.5-1-1v-2.1l.4-.3-.2-.3.5-.5v-.7l-.2-.4.1-.6-.3-.4-.2.2.1-.4-.4-.7-.5.2-1.5.4-.4 1-.5.5v1l-.4.6.4 1.2-.8 1.8-.6.4-.3.9.3.3-2.1 2.2-1 .7-.7 1-1.2.5-1.3.5-.6.7-1.7.7-1 .8-1.2-.7s.2-1.8 0-1.8l-.4-.3.4-.8-.5-1.3-.5.2-.6 1.1-1.7 1-.8-.6.1-.8-.8-1 .3-1-.9-1.1.6-.8-.1-.5-1.4-.2-.3 1.6L144 62l1.6 2.2-.8 2.6-.6 1.2.1 1h.5l1.5-.6.4.5 1.7 1.2.4.8-.3.5-1.7-1h-.7l-1.1-.8h-1.2l.4.6.8.7.5.9v.7l-1.7-.2-.8-.6v-.5l-2.1-1.2-.5-.1v-1.6l-1.6-2.1 1.3-1.2-.3-1.3-.7-.3h-.7l-.4-.6h-1.4l-.4-2-.7-1.3-1.3-1c0-.2-.6-1.6-.5-1.7v-1l.4-.3.4-2-.5-1 .2-1 .6-.4v-1l-.5-.8-.9.2h-1l-1 1-.8-1.2s-1.3-.8-1.3-1V48h-.5l-.1.5-.8.3-.2-.5-1.3-.9v-1.2l-1-.3-.7.7-.5-1.1.4-1.2-.5-.5-3-1-.1.3v1l.6.5-.4.4-.3.8-.7-.2-.2-.5-1.5-.7.3-.5-2-1.8-.2-1.5v-1l-.8-.6h-.8l-2.6-3-.3-1.6v-1l-.4-1.2-2-.6-.7-.7h-.8l-1-2.5-1.1-1.2v-.7l-.4-1-1.2.3-1.4-1.2-1.3-2.6-1.4 1-.6-.3-.1-.6-.5-.5-.2-.8-.8.3v.9l-.5.5-1 .1-.6-.5-1.4.6-.6.5v.8l-.6.5-1.6-.8-.3.7.1 1-.4.5-1.7 4v1.6l.8 1.3.2 1-1 .9.8 1.3-.9.6-1 .1-1-.6h-1.6l-1 .4-.5-.3-.3.4.5 1.3-.1.9.5.5-.2.9.5 1.4.7 1v2l-1.1.6v.5l-.5.3-1 1.7v.8l-1 .4-.8.4.7 1.6.2 1.8-1-.5-.9-.2-.9.5-.3.6-.8.3-.5.4-.5.3-.2 1 .3.5.1.6-.3.4-.2 1.3.7 1.2.3 1.5-.6 1-.4-.2-.3.3-1.4-.2v-1l-1.4-.5-.1-1.2.2-.8-.6-.5-1.3-.2H72l-.3.5h-.6l-1.2-.3-.7.4-.2.6.2.5-1 1.2v.5l-.1 1-.4.1-.8 2v.6h.8l1 .6 1-.2 1.6.4 1.3 1.1v.8l.6.5-.2.4.3.1.5-.2.9.6.2 1.9.3.3v.4l.3.4v1h-1l-.4-.3-.5.3v.5l-1.4-.2-.2-.2-.5.3-.6 1.2-1.2-.7-.2.4.2.4-.8.8-1.3-1.1-.2-.7-1-.4-.6-.8-1.2-.3-1.2-.7-1.4-.3h-.7l-.8-.1h-.6l-.4-.4v-.5l.2-.2-.4-1.3.2-.4-.3-.3-.5.1-1-1-.5.3-.6-.4h-.8l-.7-.8-.8.3h-.8l-.6.6v.6l-.5.1-.3-1-.3-.2h-.4l-.4-.5-.3-1.2-.5-.3h-.6l-.7.3-.8.4-.5.6-.5.8-.2.9-.5.4h-.5l-.4.2-.6-.2-.4-.6h-.4l-.2.5-.4.4v.5l.3.6.3.2 1 1 .5-.3.7.1.4.4.5.2.1.4-.1.4.2.3-.2.5-1.6.7-.6 1-2.5-.3-.6.5H41l.1.5-.1.3.3 1h.5l-.1 1h-.5l-.8.9-.2 1.4-.6.5-.1 1.4-.6.3-.3 1-.3.4.4 1-1-.1-1 .1-.2.6.2.4-.4.4-1.4-.3-.2.4-.9-.2-.4.3h-1l-.5.2-.2.8-.5.2-.3-.3-.1-.6-1.4-.7-.7.7.6.5-.4 1-.8.2-1-.7.1.4-1.1 1.4-.2.2-.6-.6-.5.3-.8-.7-.4.2-.3.5-1.1.2v.3l-.2.3-.4.7.2 1-.4.1-.3.5.2.7-.9.9-.2.4-1 .2-.5 1-.9.4-.1.4-.8.2-.6-1-1.4-.3h-.6l.4.4.8.3v.4l.3.4-.4.5H15l-.2-.5-.6.2-.3-.2-.4.3.1.5-.5.6-.3 1.5.3.3-.2.5-.8-.4h-1v-.6l-.8.3-.3.4.3.3-.7 1.8.5.2-2-.6-.7.3.2.6v.7l-.3.7-.6-.2h-.2l-.7-.6-1.3 1.1-.3.7.2.3-.4.5-1 .2-.4.6v.4h.5l.4-.4.5.3.1.6.2.4h1.1l-.4-1 .6-.5.7-1.4h.5l.6.4 1-.5.5.8.5.2.4-.2.4.2-.1.3-.3-.2h-.4l-.2.5H7.4l-1 .8v.6l.6.1.4-.2.5.3-.1.9-.4.2-.2.9.6.7v.5l1.2.4v.9l-.3.3-.1 1.4-.7.5.8.5.5.5-.5.2-.8-.8h-.5l-.2.7-.7 1.3.8.3.2.4h1l.5 1-.4.2v.6h1l.2.5.5.5.3.7.2 1v1l1.6.2.6-.3h1l1.8.9.4.6.6.1.6.7.9.4.4-.2 1 .3.2-.3.7.6 1 .4.3.7.5 1.3 2.2.6 1.3.9 1.9-.2.5.8 1.2.4 1.8 1.8v.3h.5l.5-.3h.6l1.7.6.5-.2 1.2-1.7 1.4.3h1.2s.4-.4.5-.3l.6.6-.5.7.9.2.5.4.5-.6.2.6v.7l1-.4.2.4-.5.5h1l.8.3-.1.5.2.4.3.2.5-.6.6.6-.4.7v.6l.9.4 1.6 1.6 1.5.7 2.9 1.6.9.3.7-.3 1 .4h1l.3-.5 2.6.6 3 .4.4-.4 1.3.3h.5l.2.4 1 .2.5-.3.3-.7.6.5v.4l.2.4 1.1-.1.4-.8h.7l1-1.8.6-.2.4-.6v-1l.4-.6v-.6l.5-.4.3-.4 1.1.6h2.1l.7-.8h.5l.6 1.1 1.4.6.7.8h1.4l.8-.5 1 .3.3.8.5.2.3 1.5-.4.8.6 1 1-.6 1.1-.1 1.4.6v.7l2.5 1 .4-.3 1.5-.2.6.3 1.2-.2.5-.6.7.4.5-.3v.7l.9 1.2-.5 1.4.7.5-.1.4v1.6l.4.3-.4.4.2.5-.4.8z" id="path594" label="morava"/>
	</g>
	<g id="layer2" style="display:inline"></g>
</svg>	