<?xml version="1.0" encoding="utf-8" standalone="no"?>
<!DOCTYPE svg PUBLIC "-//W3C//DTD SVG 1.1//EN" "http://www.w3.org/Graphics/SVG/1.1/DTD/svg11.dtd">
<svg version="1.1" xmlns="http://www.w3.org/2000/svg" xmlns:xlink="http://www.w3.org/1999/xlink" width="567pt" height="425pt" viewBox="0 0 567 425" xml:space="preserve" enable-background="new 0 0 567 425">
<g color-interpolation="linearRGB" transform="scale(0.72,0.72)">
<g id="Map_Frame">
<g id="morava">
<clipPath id="cp_2">
<path d="M787.39998 590.55 L787.39998 0 L1.5018463e-05 0 L1.5018463e-05 590.55 Z " />
</clipPath>
<g clip-path="url(#cp_2)">
<g transform="matrix(1.3888889 0 0 -1.3888889 393.7 295.275)">
<path d="M-15.428075 203.29417 L-14.073218 202.22613 L-13.462976 201.32661 L-12.753215 200.87277 L-10.086237 199.89315 L-8.6770888 198.73079 L-7.663464 198.1484 L-6.5639872 197.12285 L-6.1751286 196.32975 L-4.8642932 196.84019 L-2.7766668 198.5252 L-1.67601 197.80852 L-0.64420314 196.51134 L0.029257438 197.13315 L0.85954479 197.14627 L1.6278003 195.8087 L2.7694361 195.69053 L3.2799507 195.03659 L4.8150323 193.95835 L7.0341855 193.68228 L8.0356518 193.38357 L8.9861979 192.86787 L9.1440729 193.63575 L9.3784628 193.70007 L11.738684 193.7906 L12.96304 193.51921 L13.013272 191.04386 L14.752324 191.12987 L15.057824 190.75765 L15.598016 190.49315 L17.523049 188.13113 L18.750324 188.37787 L19.467191 188.05393 L20.20912 188.84162 L22.581989 189.39038 L23.080236 189.77689 L23.220754 190.22393 L25.911932 189.43417 L25.878954 188.80144 L25.730178 188.68818 L25.829086 188.38957 L25.330951 186.95818 L25.614629 184.53069 L27.281068 183.1108 L27.283536 182.83552 L28.901078 180.40605 L29.942606 179.65346 L30.422889 179.49664 L30.882345 178.84691 L31.345562 178.66525 L32.03751 177.91571 L32.155825 177.47107 L33.450202 176.84175 L34.453656 176.63513 L36.053577 175.11934 L36.938653 174.65909 L38.040763 174.3294 L39.933989 174.90737 L41.236285 174.98264 L43.340922 176.4332 L46.261728 176.70742 L46.45309 176.04811 L46.200825 175.48968 L45.117872 175.46463 L44.700413 173.35632 L45.505381 173.0614 L45.794939 173.18172 L46.255584 173.07771 L46.963947 172.25603 L46.910504 171.98781 L46.638118 171.90085 L46.518303 170.95972 L45.886941 170.01823 L45.709011 168.58652 L46.19612 167.74126 L44.73189 166.87297 L45.418056 166.3372 L45.581142 165.97346 L45.50057 164.97442 L45.709859 164.73354 L45.925875 163.38646 L46.361694 162.63329 L46.739961 162.55105 L47.57365 162.89143 L48.20301 162.6802 L48.196102 165.32365 L48.288104 166.03232 L48.705366 166.56269 L51.914719 166.71381 L53.562774 166.02245 L54.408352 164.7825 L56.339984 165.5473 L56.792629 164.24284 L57.38364 163.53876 L57.811617 162.40085 L57.32106 161.43543 L57.602115 160.45711 L58.98163 159.89754 L61.080441 160.9704 L61.437206 161.69129 L61.319793 162.22396 L61.460807 163.34172 L61.310765 163.85457 L61.541111 163.94111 L62.330112 163.27654 L63.060907 163.8266 L63.499169 163.73948 L63.64217 163.93254 L64.582457 164.18223 L65.475379 164.66349 L66.825947 165.03576 L67.028255 164.8727 L68.440699 164.95777 L70.019022 164.82382 L70.866054 165.018 L71.050632 164.70822 L72.692903 164.30427 L73.300722 163.99937 L74.296033 163.91057 L75.814377 164.21949 L76.288725 163.98537 L77.502258 164.94245 L78.437096 165.20172 L78.742235 165.65518 L79.228731 165.59078 L80.303646 165.88166 L80.370981 165.61354 L80.807528 165.37977 L81.108339 164.98144 L81.166542 164.06688 L81.808501 163.89244 L82.268712 163.25789 L83.028524 163.0366 L83.751751 163.21274 L84.539626 163.73231 L86.81896 164.72881 L87.274405 165.26113 L88.54358 165.62095 L89.533983 167.18144 L90.414373 167.6457 L90.849215 168.06424 L91.040835 168.55542 L92.027629 168.7738 L92.748817 169.83307 L93.476418 170.28454 L93.913642 170.8994 L93.630967 171.7512 L93.896527 173.90898 L93.733939 174.00286 L93.606247 176.62363 L96.801017 175.63271 L98.098561 174.9339 L98.583529 174.36979 L99.101108 172.1067 L99.470054 171.21374 L99.64005 171.29071 L99.916984 171.13298 L100.09573 171.26031 L100.62218 170.98768 L100.70843 170.76291 L101.15315 170.92115 L101.24811 170.70639 L101.75586 170.71694 L101.72316 170.56712 L101.80497 170.82354 L102.17621 170.63083 L102.38506 170.74659 L102.59467 170.55216 L102.54311 170.39731 L102.72129 170.3866 L102.67452 169.9362 L102.47243 170.00861 L102.22553 169.76753 L102.34186 169.74499 L102.25405 169.50213 L102.38166 169.47408 L102.13868 169.21511 L102.13062 168.97861 L101.44751 168.52938 L101.52711 168.32125 L101.24321 167.99979 L101.17723 167.54745 L100.65701 166.68498 L100.28424 165.57971 L99.057282 164.53734 L99.079118 161.43349 L98.92824 161.01913 L100.25834 160.09594 L100.7117 159.35944 L104.52985 156.56289 L104.48068 155.98705 L103.8356 154.88647 L103.35124 153.29395 L103.83273 152.22484 L103.7587 151.559 L103.48213 150.91814 L103.67662 150.5907 L103.61782 150.03982 L102.1613 149.75684 L102.05216 149.47719 L101.66959 149.18639 L101.19307 149.05302 L100.28014 149.14766 L100.15305 149.35263 L99.460156 149.51145 L98.825173 150.0422 L97.879555 149.85471 L97.739334 149.40807 L97.861415 149.13851 L97.726482 148.96631 L97.454321 148.98775 L97.465854 148.83622 L97.288377 148.87368 L96.833275 148.42789 L97.064729 147.74951 L96.848313 147.16905 L96.932355 146.85057 L96.549017 146.67681 L96.517302 146.44639 L96.032674 146.35278 L96.266551 145.63295 L96.087253 145.30266 L95.685407 145.14261 L95.379699 145.20038 L94.779868 144.89865 L94.126191 144.98596 L93.97042 144.73693 L93.139094 144.58336 L92.557839 144.87256 L90.643873 143.76005 L87.501629 143.39313 L86.765861 143.08877 L86.597191 142.86786 L85.731759 142.80112 L85.035675 141.86798 L84.184657 142.29772 L82.92248 142.18107 L82.223237 142.29053 L81.884056 142.00017 L81.600263 141.96424 L80.414895 139.85581 L81.005848 138.9007 L81.352263 138.86512 L82.25172 137.45055 L82.327697 136.98366 L82.774205 136.28351 L82.696122 135.88321 L83.015332 135.46254 L83.818433 135.29018 L83.866537 134.90808 L84.374558 134.84016 L85.831692 133.95906 L86.280936 133.89157 L87.072808 133.46888 L87.490835 132.6592 L87.44478 132.35554 L87.71144 132.14527 L87.562393 131.71466 L87.93905 130.80031 L87.952648 130.3782 L88.241919 130.30163 L88.105971 129.79025 L88.230296 129.44173 L88.52314 129.09374 L90.113271 128.65612 L90.542672 128.27021 L92.167763 127.42011 L93.093093 130.53767 L94.992258 130.46869 L95.232884 130.23099 L96.152494 129.90397 L99.756526 126.14061 L99.551324 124.14861 L99.829839 124.0592 L99.783309 123.88078 L100.06497 123.8149 L100.26332 123.35854 L100.78739 122.92201 L101.04149 122.99678 L100.91674 122.73311 L101.07678 122.58418 L101.46398 122.69075 L102.05379 122.15994 L102.28924 122.13166 L102.42488 121.86485 L102.31806 121.52559 L102.62118 121.50097 L102.77487 121.13581 L102.56468 120.9255 L102.7741 120.14047 L103.37825 119.89898 L103.29905 119.58541 L103.68722 119.70321 L103.61373 119.45011 L103.32582 119.24278 L103.57149 119.09719 L103.66901 119.23833 L103.75588 118.95791 L103.46248 118.87302 L103.58312 118.78723 L103.5013 118.61108 L103.33514 118.71014 L103.1069 118.56024 L103.25649 118.38006 L103.20276 118.20033 L103.37797 118.23979 L103.60388 117.98416 L103.37093 117.71263 L103.98089 117.77453 L104.02002 117.36483 L104.42385 117.14772 L104.28667 117.01768 L104.12591 117.11814 L103.97003 116.85539 L104.0303 116.63452 L104.30991 116.40973 L104.62941 116.42706 L104.78426 116.07419 L105.11014 116.18044 L105.08186 115.6622 L105.43104 115.55732 L105.5247 115.06069 L105.31541 114.52564 L105.68995 114.18923 L105.2687 113.54338 L105.287 113.19158 L105.12879 113.18605 L105.2746 112.97785 L105.20357 112.64334 L105.57661 112.73615 L105.95393 112.60728 L105.97226 112.1498 L106.24613 111.61776 L106.11095 111.10056 L105.4078 110.59226 L106.20615 109.62348 L106.29125 109.36212 L107.00666 109.18702 L107.35323 109.36418 L107.79024 108.74656 L108.06445 108.79107 L108.36438 109.12789 L108.7335 108.81826 L108.73747 108.11099 L109.17056 107.90245 L109.75754 107.87856 L110.01708 107.66723 L113.30581 107.42386 L114.58898 105.74786 L113.12107 103.65736 L113.40291 103.62807 L113.62695 103.29014 L114.00361 103.15526 L114.19306 102.74342 L114.39438 102.82003 L114.51666 103.28392 L114.70085 103.29713 L114.88423 103.0438 L114.79051 102.80137 L115.42394 102.08932 L116.47717 102.08507 L116.70444 101.47824 L116.59564 101.18893 L116.81892 101.05751 L117.05847 101.21038 L117.32767 100.9137 L117.3693 100.57794 L117.78197 100.78874 L118.03678 100.74918 L118.76992 99.191065 L119.01708 98.973195 L121.35928 100.44879 L121.50563 100.26447 L121.95757 100.62622 L122.42086 100.55816 L123.15128 100.15599 L124.70792 99.848118 L125.05093 100.1342 L125.92851 100.13921 L126.62422 100.33568 L126.88145 101.00393 L127.63491 102.04843 L130.99069 106.06476 L132.08388 106.0461 L132.59571 106.75721 L133.20027 106.89485 L133.66076 106.83782 L135.0829 106.0672 L135.92121 107.90887 L136.41133 108.234 L137.29739 108.39318 L138.07183 108.9597 L138.46755 107.29089 L139.44796 107.38074 L140.80408 107.20449 L142.36345 107.35801 L142.61566 106.8342 L143.50908 106.31478 L143.51663 106.04671 L143.78615 106.07699 L143.82047 107.20162 L143.65178 107.2153 L143.14933 107.92331 L143.34183 107.98463 L143.36729 108.38414 L143.90512 108.42034 L143.84633 109.13607 L144.00065 109.18206 L143.60554 109.33533 L143.4319 109.76088 L144.07725 110.3469 L143.95762 110.80038 L144.28395 110.93459 L143.63495 112.93465 L142.81137 112.88327 L141.42132 113.39756 L140.88618 113.40411 L140.86583 112.92637 L140.53108 112.83413 L139.92024 111.80926 L139.2573 111.54748 L138.65816 111.77522 L137.99327 113.45519 L138.25159 113.76808 L138.35326 114.70169 L138.14497 116.61555 L139.10228 116.88303 L140.34294 118.23452 L142.127 119.34631 L143.13884 118.67805 L143.87204 118.59739 L144.08048 117.98119 L144.39816 117.67848 L146.06148 117.85527 L146.34995 116.44991 L146.88349 116.53617 L146.65116 115.43811 L148.25128 114.90442 L149.45069 114.9711 L149.93064 114.57158 L149.80594 113.29846 L149.6657 112.82049 L149.30854 112.39649 L149.40667 111.92421 L150.16111 111.51913 L150.94646 110.61885 L151.18407 110.65284 L151.5159 110.39111 L151.86047 109.88339 L151.4029 109.44318 L150.90074 108.55142 L150.47947 108.2264 L150.67364 107.59476 L151.12495 106.55934 L152.08847 105.16025 L153.58518 104.2477 L153.64401 103.81155 L153.79505 103.68717 L154.34204 103.76486 L155.77619 104.54015 L156.23009 104.39983 L156.4676 103.63333 L157.98925 103.13529 L158.95448 101.12181 L159.5411 101.20932 L160.17118 101.67725 L160.86982 101.82241 L161.07792 102.00998 L161.27473 102.59313 L161.49649 102.78503 L160.95351 103.62383 L160.93435 104.63665 L161.75347 104.64804 L161.65504 105.02299 L163.03611 105.04575 L163.05294 104.87763 L164.02835 104.69289 L164.46714 103.76689 L166.33556 104.51029 L167.00914 103.27775 L167.07242 102.40552 L167.35189 101.94016 L167.56725 99.670975 L167.41511 98.865863 L168.30351 98.182496 L168.44211 97.919375 L169.09253 98.332735 L170.50986 98.657277 L172.11444 98.142268 L172.89873 98.214997 L174.22196 97.593496 L175.44067 97.605165 L176.09585 97.261644 L176.38969 96.787543 L176.86927 94.196869 L176.50145 91.916559 L176.98251 91.715041 L176.85185 91.284151 L177.7649 90.064087 L177.96835 89.451588 L179.27593 89.451828 L179.50571 88.693772 L179.28804 88.382414 L181.50472 87.291894 L181.5012 86.978742 L181.92324 86.614056 L182.29545 86.786694 L182.44198 86.659676 L183.07379 87.365896 L183.63596 88.360474 L183.76611 88.93406 L183.58322 89.63935 L183.66374 89.856485 L184.10298 89.783102 L184.13449 89.124048 L184.67542 89.035548 L185.02337 88.783833 L185.68822 89.691389 L186.41291 89.640156 L186.02835 89.92423 L185.12778 90.186514 L185.08724 90.422091 L185.28318 90.749509 L185.78496 90.795147 L186.38315 90.55831 L186.64304 90.89807 L186.2282 91.201292 L185.90789 91.948572 L185.56438 91.964295 L185.10242 91.547475 L184.29257 91.896682 L184.02468 93.943609 L184.65313 93.206116 L187.25257 92.786675 L187.77893 92.076115 L188.41462 91.966773 L188.75266 91.286603 L189.16042 91.160632 L189.75239 91.301665 L190.18612 90.947098 L191.5372 90.857308 L192.24486 90.607733 L193.08073 90.654381 L193.48611 90.950645 L195.90664 91.331818 L196.408 91.596939 L197.71216 91.501604 L198.00889 89.328298 L198.67537 89.358006 L199.77044 88.209616 L200.53414 88.332238 L201.11539 88.096562 L202.2636 88.057054 L202.78885 86.703222 L204.28641 85.745415 L205.02478 85.552151 L205.26706 85.218679 L205.1022 84.928722 L205.41065 84.81563 L205.31612 84.594788 L206.07661 84.340198 L206.13354 83.942784 L206.54211 84.346168 L206.72805 84.276393 L206.56458 84.530473 L206.77868 84.580939 L206.75333 84.403804 L207.00469 84.34662 L206.90259 84.248914 L207.13608 83.860573 L207.38488 84.270769 L207.58551 83.909249 L207.81663 84.067356 L208.05983 83.965757 L207.90344 83.75731 L208.17279 83.602526 L208.18506 83.87365 L208.28586 83.695713 L208.53263 83.831772 L208.53072 83.657562 L208.98352 83.818703 L209.18679 83.687326 L209.42188 83.850838 L209.54955 83.614117 L210.0933 83.710924 L210.29394 83.385311 L210.38157 83.554264 L210.52496 83.483182 L210.41782 83.224723 L210.63085 83.292247 L210.71604 83.09576 L210.82852 83.336483 L211.1185 83.447217 L211.3154 83.353229 L211.36275 83.106955 L211.45612 83.430298 L211.58513 83.138794 L211.86028 83.094607 L211.97511 83.263769 L212.21467 83.119703 L212.31225 83.636011 L212.79157 83.771654 L212.93505 84.17892 L213.26627 84.277088 L213.99298 85.194054 L212.98554 85.823608 L213.17641 87.218165 L213.06608 87.501459 L213.42666 88.083828 L212.91606 88.788213 L213.28972 88.937039 L213.68731 88.821801 L214.45473 88.193989 L214.7044 87.729762 L215.75966 87.092745 L217.60866 87.904489 L217.92672 87.252691 L217.83169 86.393035 L218.06598 86.091089 L217.72447 85.915346 L217.73676 85.637202 L218.00051 85.468849 L217.71955 84.897956 L218.32295 84.714014 L218.60997 84.411258 L218.29728 83.973181 L218.26615 83.201629 L217.63492 82.205872 L217.32294 81.396596 L217.72597 80.92844 L217.68961 80.584431 L217.15895 79.990126 L217.1979 79.791271 L217.0047 79.84905 L216.64544 79.544948 L216.5952 79.005689 L217.39931 77.984809 L217.17258 77.782716 L217.14337 77.436374 L217.24338 77.537623 L217.46928 77.159356 L217.64039 77.286792 L218.03309 76.749392 L218.54803 76.550422 L218.43328 76.314986 L218.59806 76.270976 L218.63403 75.991167 L219.46535 75.977593 L220.0508 76.170361 L220.9425 75.809881 L221.2768 75.88482 L221.73937 75.528082 L222.20169 74.864252 L221.94271 73.890537 L220.25928 73.657958 L220.21247 73.400087 L219.87434 73.224434 L219.85735 72.969817 L219.36038 73.009319 L219.12022 72.846787 L219.94693 71.428573 L218.97594 70.335591 L217.98877 69.755895 L217.12095 68.959932 L217.04987 67.832211 L217.34859 67.18224 L218.03311 66.70248 L218.24795 65.976108 L218.92875 65.397583 L218.94237 63.645478 L219.34237 62.551312 L220.41212 61.876789 L220.39465 61.006012 L221.39296 59.191126 L221.02203 58.509363 L221.01997 58.103464 L221.75808 57.354012 L222.06463 56.025833 L222.86319 55.14281 L222.92905 54.225395 L223.42236 53.116029 L223.18675 52.274074 L223.27177 51.766752 L223.66954 51.263219 L225.00165 50.742743 L225.4875 50.031682 L225.40831 48.63317 L225.19755 47.946184 L225.30155 47.285901 L225.07032 46.290851 L225.43772 45.491458 L224.92801 44.680532 L225.52563 44.565012 L225.47072 44.281288 L225.64117 44.097715 L226.13191 43.726376 L226.11729 43.591975 L226.48379 43.54375 L226.46463 43.075089 L227.0996 42.769185 L227.23479 42.495185 L227.72154 42.480356 L228.25303 42.193124 L228.72069 42.215087 L228.75829 41.485179 L229.60149 42.179191 L230.11985 42.197272 L230.37809 41.898834 L230.37109 42.011209 L230.76059 41.925548 L230.94732 40.579424 L231.55298 40.633135 L232.31731 41.097109 L232.35155 40.906362 L232.72997 40.648944 L233.58747 41.096818 L234.50758 41.263203 L236.73236 40.807719 L236.46806 40.330488 L237.0033 39.769052 L236.68907 38.845903 L237.0587 39.030669 L237.24167 38.901797 L237.47603 38.991805 L237.43789 38.04075 L237.85144 37.617181 L237.90691 37.164038 L237.78351 36.268003 L238.08024 36.331727 L238.65421 36.091612 L239.56361 36.415534 L239.80061 36.117351 L240.36269 36.02936 L240.73165 35.689963 L240.95413 35.141524 L240.8968 34.910502 L241.23601 34.738919 L241.85801 34.970967 L242.55626 34.836081 L244.37391 36.510005 L244.73843 35.996489 L245.19217 36.242769 L245.73295 36.117839 L246.68049 36.666978 L248.53474 35.368188 L250.03309 35.265102 L250.58324 34.492412 L250.80252 33.569609 L250.31804 32.318435 L250.52137 31.821369 L250.45381 31.326766 L250.67744 30.267003 L250.27825 29.298016 L250.6894 28.655038 L251.26691 26.819164 L251.20386 25.637398 L251.79621 25.050626 L251.82224 24.518264 L252.22484 23.444307 L252.02171 22.225611 L252.78557 21.339494 L252.852 20.296073 L252.64225 19.78107 L252.63793 19.09383 L253.12646 17.558572 L253.48971 17.124385 L254.85993 17.205914 L254.8296 16.774692 L254.36534 16.050918 L254.34003 15.337897 L253.94814 15.128763 L253.827 14.791384 L253.9433 13.920971 L254.27967 13.279651 L254.03928 12.477532 L254.64556 11.561689 L254.59786 10.242802 L254.88066 9.7577218 L255.56406 9.8684322 L255.77031 9.7722268 L255.80265 9.4803484 L256.22685 9.2580669 L256.28753 8.3558274 L256.8301 7.845141 L257.68302 7.5512021 L257.43068 4.8204079 L256.3564 4.0653023 L255.98913 4.3065422 L255.84474 4.0652577 L255.5613 3.9931044 L255.468 3.2321374 L255.6363 3.056317 L255.64567 2.73104 L254.84815 2.1464849 L254.60075 1.7387936 L255.13956 1.2355258 L255.40933 0.64055706 L256.61149 0.58826288 L256.51445 0.34026419 L255.38318 0.19107822 L255.01748 -0.1403183 L253.58098 0.093970689 L251.7193 0.16660351 L251.12069 0.17390086 L250.52956 -0.066699841 L249.35285 -1.344591 L247.82345 -1.4896871 L246.47401 -2.2786519 L245.08988 -3.6250131 L244.59285 -4.4172826 L243.47503 -5.1147557 L243.01825 -5.8589416 L242.345 -5.4680654 L241.53703 -5.7958515 L240.27854 -5.4267027 L239.56903 -4.486519 L238.81521 -4.1765237 L238.24701 -3.3337225 L237.5158 -3.4019385 L237.06582 -2.8701037 L235.58825 -3.0301323 L235.05395 -3.4377176 L233.70243 -3.1965087 L233.34779 -2.7607801 L233.27315 -2.2965013 L233.06808 -2.0614414 L232.2892 -1.7109785 L231.32002 -2.0289023 L231.23358 -2.421345 L230.40893 -2.8522347 L230.07756 -2.6892518 L229.07927 -2.6774179 L228.93183 -2.9808279 L228.58293 -3.1190866 L228.34489 -3.012884 L227.32082 -3.1847218 L226.92787 -4.1676951 L225.81121 -3.628952 L223.88028 -4.4188466 L222.99811 -4.0593994 L222.2374 -4.1035944 L221.79058 -3.9826477 L221.57354 -3.6218907 L221.75657 -2.7894065 L221.66345 -1.8776285 L221.01203 -1.1480001 L219.65985 -1.6223071 L219.2731 -1.6208011 L218.71823 -2.0007768 L218.14695 -1.9372004 L217.60442 -1.5591864 L216.47684 -1.8871255 L215.33065 -2.625386 L214.80515 -2.6802566 L214.61361 -3.1341609 L213.97209 -3.3288714 L213.80317 -3.2443672 L213.3972 -3.9837145 L213.32693 -4.4819995 L213.22707 -4.9261135 L212.23999 -5.4887952 L212.19214 -6.607527 L212.53307 -7.3081218 L213.29035 -8.1229107 L213.46993 -9.1483238 L213.96367 -9.5171563 L214.11114 -10.277938 L213.54557 -10.88535 L212.47418 -11.019038 L211.98065 -12.375368 L210.87098 -12.728682 L210.65148 -13.416018 L210.61303 -14.289341 L210.13395 -14.532033 L209.74393 -14.465902 L209.63826 -14.7323 L208.54371 -15.562135 L208.14146 -15.652465 L207.52876 -17.177195 L206.78116 -17.160771 L206.28588 -17.399247 L205.99477 -17.744788 L206.04791 -17.996821 L206.65651 -18.478987 L206.57475 -18.819799 L206.43736 -18.994291 L205.30589 -19.302639 L204.87265 -19.739992 L204.82914 -20.402356 L204.51315 -20.52663 L204.10434 -21.290244 L204.29461 -22.370942 L203.99692 -23.04452 L201.28962 -24.243117 L200.67211 -24.811137 L200.31463 -25.433734 L200.39474 -26.280036 L198.05333 -26.430887 L195.07466 -25.080328 L194.51209 -25.145547 L193.91515 -25.594009 L194.17543 -26.403297 L194.428 -26.562682 L194.65057 -27.055261 L194.55323 -27.627149 L194.88646 -28.51075 L194.82527 -29.093498 L195.06503 -29.494405 L194.89051 -29.939673 L195.37044 -30.879735 L195.58122 -31.859393 L195.06409 -32.306884 L194.58215 -33.401868 L193.14739 -34.170145 L193.43904 -34.905819 L193.99785 -35.58122 L192.63368 -36.00079 L191.72712 -37.092793 L190.45145 -39.809343 L188.59739 -41.12568 L184.50528 -42.243021 L183.13818 -42.458526 L182.56946 -43.123904 L181.74514 -43.556047 L179.55769 -44.215815 L179.84418 -45.095318 L179.17856 -45.365853 L178.23529 -45.505932 L177.86206 -45.389624 L177.39845 -45.691865 L176.56981 -45.586896 L175.88723 -45.991835 L175.47196 -45.919532 L174.3333 -46.738016 L173.73006 -46.735221 L173.25711 -47.048789 L172.55358 -47.181178 L172.14305 -47.49561 L171.14549 -47.564907 L170.81937 -47.328005 L169.9726 -47.614107 L169.62041 -47.503454 L169.28034 -47.634764 L168.491 -47.35621 L167.96645 -47.900971 L167.28218 -47.704485 L166.59092 -48.149189 L166.00223 -47.764947 L165.50627 -48.002699 L165.05402 -48.609683 L164.25267 -48.526076 L163.61546 -49.05799 L163.17307 -49.157108 L163.44154 -50.460663 L163.255 -50.782082 L163.20626 -52.839526 L162.9906 -53.071227 L162.48499 -53.222787 L162.20017 -53.797071 L161.69471 -53.960672 L161.45382 -54.307692 L160.25323 -54.749804 L159.98822 -56.003184 L159.34284 -56.428798 L158.75636 -56.609297 L158.01733 -57.431242 L157.91541 -57.968889 L158.14211 -59.219118 L158.09793 -60.174402 L157.62717 -61.543946 L158.48994 -61.509574 L158.86717 -61.305725 L159.28801 -61.478586 L158.78342 -63.60842 L159.09743 -64.347859 L158.15367 -64.595934 L158.32142 -66.722937 L158.00982 -66.760511 L157.20019 -68.646908 L155.72869 -70.208823 L155.81446 -71.47192 L155.63019 -72.681661 L155.59938 -74.564268 L156.55014 -76.154456 L155.89132 -76.463259 L155.3595 -77.383482 L154.0388 -77.921974 L153.82178 -78.345174 L153.81967 -79.43012 L153.98749 -79.904373 L153.36755 -80.227455 L152.35595 -81.895895 L152.57366 -82.530309 L152.98281 -83.049342 L153.74495 -83.591558 L154.51948 -85.357007 L154.41388 -85.49705 L153.91793 -85.142474 L153.33979 -85.249365 L153.15828 -85.95941 L152.84865 -86.309529 L153.64173 -90.886326 L153.58715 -91.326796 L153.02322 -91.925546 L150.96962 -96.188964 L150.55244 -95.77259 L150.24217 -96.16568 L150.09182 -97.171258 L150.21482 -97.459168 L150.75946 -97.887622 L150.71202 -98.031892 L150.23321 -98.264687 L149.57623 -99.145123 L149.15391 -99.34138 L148.90236 -99.828649 L148.8972 -100.70871 L148.42838 -100.95023 L148.46937 -101.14363 L148.31385 -101.38589 L148.19853 -101.30822 L148.18801 -101.58815 L147.84017 -101.53158 L147.64791 -101.65057 L147.39175 -102.02157 L147.3206 -102.50037 L146.45564 -103.12175 L145.55207 -103.54116 L145.20182 -103.89455 L145.0963 -103.74981 L144.91452 -103.81291 L145.40951 -104.47898 L145.1198 -104.30639 L144.85813 -103.80022 L142.62785 -104.93351 L141.57473 -104.83655 L140.83943 -106.03141 L140.57367 -106.04767 L139.10604 -105.72488 L138.65487 -106.03519 L138.4376 -106.00947 L137.44157 -105.35194 L136.87578 -104.77865 L136.14258 -104.48065 L135.40169 -104.70781 L134.77827 -105.48523 L134.01698 -105.7303 L132.73517 -105.40997 L131.49169 -105.39877 L130.90607 -105.21808 L129.72712 -105.59489 L128.32799 -105.52978 L126.82107 -106.30195 L126.15869 -107.43709 L125.36156 -108.2317 L125.11012 -109.32376 L125.28623 -109.73743 L125.44518 -111.11699 L125.12196 -112.51043 L124.18931 -113.56208 L123.8468 -114.26834 L123.46266 -115.99943 L123.65761 -116.35963 L123.36236 -116.97203 L123.84271 -118.19994 L123.27499 -120.16712 L122.72196 -121.02075 L122.58615 -121.56339 L121.86747 -122.48544 L121.48901 -124.53259 L121.50071 -125.70851 L121.36118 -125.97941 L120.03886 -126.35595 L119.06374 -127.06162 L117.68956 -126.59064 L116.82302 -126.0681 L116.23709 -125.99447 L115.61047 -126.25096 L111.82477 -125.97523 L111.64775 -126.41191 L106.80596 -126.49041 L107.10173 -127.35671 L106.99451 -128.31903 L106.18579 -129.03505 L105.34094 -129.25986 L103.1347 -131.35813 L103.01169 -131.66226 L102.46853 -132.14136 L102.38869 -132.8119 L101.98813 -133.75268 L101.0924 -134.36963 L101.1614 -134.92274 L100.56186 -135.95232 L99.752558 -136.48568 L99.523531 -136.41952 L98.244174 -137.34375 L97.566013 -138.60062 L96.333747 -139.74829 L95.890852 -140.38114 L95.381326 -140.14289 L94.131398 -139.9042 L93.003264 -140.19863 L92.422044 -140.77156 L91.938185 -140.79552 L91.014549 -141.61368 L89.60591 -141.28018 L89.07379 -141.28945 L87.996831 -141.60622 L86.754855 -141.41195 L86.043707 -141.47275 L84.301839 -143.20781 L84.359507 -144.2092 L81.686677 -144.4485 L81.158044 -145.21371 L80.762578 -147.07273 L79.871946 -147.78916 L79.26928 -147.69032 L77.279491 -148.08982 L76.25513 -147.63537 L75.460553 -147.0707 L75.070439 -146.43356 L74.501834 -147.2673 L74.184381 -147.31106 L75.177532 -148.31971 L74.851961 -148.94268 L73.853119 -149.67605 L72.944346 -149.13492 L72.748558 -149.18007 L71.417466 -150.55793 L70.223533 -150.42931 L70.082974 -149.94838 L69.664999 -149.35568 L69.785659 -147.87463 L70.098896 -146.91439 L69.642465 -148.00067 L69.560408 -147.76255 L69.450857 -147.87113 L69.14102 -148.95793 L68.940151 -148.92456 L68.8106 -148.61174 L68.803312 -148.97634 L65.164926 -145.29963 L64.830057 -144.76643 L64.280208 -144.35717 L63.245829 -144.10392 L62.030673 -143.5795 L61.244876 -143.59364 L60.975114 -143.22426 L60.55271 -143.37162 L60.13198 -144.0698 L59.606731 -144.42409 L59.537313 -145.13587 L58.453786 -144.51805 L57.791252 -146.28962 L57.424846 -146.76732 L57.218435 -147.55137 L56.579709 -147.3623 L56.01954 -146.915 L54.707007 -148.43915 L53.809776 -148.79779 L53.610659 -149.56875 L52.994261 -150.3098 L52.447106 -150.07461 L51.957062 -149.61532 L51.622796 -149.814 L50.705523 -149.39842 L50.419884 -149.06356 L49.322979 -149.65026 L49.15827 -149.88456 L48.380815 -150.26096 L48.020805 -150.26892 L47.021098 -148.46095 L46.396942 -148.23224 L46.02024 -147.54256 L44.926774 -147.18989 L44.486302 -146.93643 L44.17638 -146.5306 L43.732976 -146.40175 L43.389683 -145.71539 L42.902391 -145.43609 L42.527559 -144.32134 L42.470809 -143.51153 L41.990731 -143.5287 L41.958459 -143.41134 L41.253788 -143.92611 L40.279265 -143.87495 L39.690006 -143.52742 L39.625402 -143.12051 L39.199061 -142.62932 L38.700301 -142.40197 L38.129442 -142.37069 L37.835223 -141.99437 L36.889436 -141.60754 L36.595746 -141.17942 L36.557217 -140.65241 L36.443678 -140.66018 L36.353463 -140.31882 L36.029669 -140.17989 L35.78208 -140.30876 L35.800519 -140.18584 L35.47035 -140.00817 L35.082641 -140.0233 L34.9482 -140.24474 L34.385815 -140.43252 L34.414705 -140.27766 L34.25947 -140.21212 L34.155311 -140.37562 L33.825513 -140.28555 L33.783229 -140.12483 L33.57837 -140.18926 L33.49906 -139.91848 L33.289794 -140.07114 L32.93002 -139.916 L32.531967 -139.55332 L32.440934 -139.24506 L32.268541 -139.08439 L32.184703 -139.15979 L31.844755 -138.74771 L31.027808 -138.58898 L30.567554 -138.78308 L29.95037 -138.61617 L29.680418 -138.48745 L29.399084 -138.04785 L28.96531 -137.92219 L28.48987 -138.16003 L27.968259 -138.11421 L25.721786 -136.52194 L24.361771 -137.25623 L23.488083 -138.21747 L22.947772 -139.26531 L21.75476 -140.78843 L20.122144 -141.79139 L19.591682 -142.47567 L19.019424 -143.61522 L17.208016 -144.19795 L13.532133 -146.0725 L12.964717 -146.51002 L12.485065 -147.24009 L12.173459 -148.0942 L12.44943 -149.61693 L12.275973 -151.47798 L11.986313 -152.17091 L11.535263 -152.66987 L10.599737 -153.32287 L10.194673 -153.85346 L10.055456 -154.41969 L10.06923 -155.71334 L9.6897014 -156.43205 L9.0316964 -156.86618 L7.1636963 -157.49013 L5.830538 -159.24894 L4.1012742 -160.12191 L3.4831665 -160.77262 L2.9881747 -163.159 L2.6612068 -163.59023 L1.5516371 -164.45782 L1.105214 -166.10244 L-0.52451272 -168.23386 L-0.81238753 -170.50075 L-1.1962836 -170.98745 L-2.4967577 -171.95869 L-2.8611046 -172.49398 L-2.9960372 -173.33973 L-2.6952658 -175.27056 L-2.9271167 -176.11758 L-3.3685212 -176.65482 L-5.181768 -177.89919 L-5.8296624 -179.64847 L-7.0484729 -181.03124 L-7.1579297 -181.70301 L-6.9757417 -182.82559 L-7.1753191 -183.91294 L-6.804005 -185.81287 L-7.0186077 -186.3348 L-7.7058695 -187.17048 L-7.765398 -188.5462 L-8.4889422 -189.5634 L-8.6117311 -190.50537 L-9.071756 -190.82214 L-9.9432976 -190.95244 L-10.923158 -192.05152 L-11.214618 -191.6391 L-11.734134 -191.47275 L-12.680124 -191.5055 L-13.923725 -190.80459 L-13.726048 -190.47067 L-13.881552 -189.90107 L-13.607981 -189.54566 L-13.192346 -189.3758 L-13.327277 -188.93409 L-12.935726 -188.73621 L-13.0049 -188.03864 L-12.571908 -187.37326 L-12.779348 -186.86073 L-13.694922 -185.90697 L-13.623434 -185.16971 L-13.821828 -184.96122 L-13.84458 -184.56997 L-13.297505 -183.21981 L-13.465939 -182.19505 L-13.285841 -180.82095 L-13.879008 -180.11557 L-14.656054 -179.97093 L-15.080219 -179.51619 L-15.015019 -178.59824 L-14.697006 -178.22643 L-14.705409 -177.58283 L-14.296478 -176.99556 L-14.235194 -176.25737 L-13.949667 -175.75018 L-14.297276 -175.16464 L-14.207721 -174.31495 L-14.640048 -173.80259 L-14.823361 -173.10618 L-15.901323 -172.36554 L-16.181797 -171.844 L-16.186029 -171.60212 L-15.681603 -171.25341 L-16.264674 -170.55459 L-16.885038 -170.98829 L-17.155396 -170.87645 L-17.601838 -171.0314 L-18.280831 -170.84671 L-18.470493 -170.92281 L-19.459542 -169.48896 L-19.812225 -169.74778 L-20.082866 -170.56601 L-20.450694 -170.78841 L-20.25067 -171.00891 L-20.824876 -171.72082 L-24.735148 -171.9276 L-25.749082 -170.86009 L-26.729212 -172.01483 L-27.428525 -172.17577 L-28.264856 -172.19359 L-29.793825 -171.78152 L-29.696089 -172.43986 L-30.497461 -173.11485 L-30.591562 -172.38155 L-30.780695 -172.0748 L-31.034743 -172.225 L-31.216015 -172.14409 L-31.963258 -171.42914 L-32.567601 -171.65073 L-33.330411 -171.56116 L-33.449266 -171.76442 L-33.599581 -171.36802 L-33.9334 -171.83319 L-34.81925 -171.32911 L-35.624871 -170.39168 L-36.177605 -170.86823 L-36.522787 -170.76467 L-36.318383 -170.38094 L-36.688807 -170.34725 L-36.651593 -170.24514 L-37.069044 -169.9898 L-37.25492 -169.11427 L-37.923029 -167.55362 L-39.298605 -167.86997 L-39.398609 -168.15934 L-39.670604 -167.90399 L-39.484926 -167.60878 L-39.951397 -167.19535 L-40.441678 -167.33826 L-40.69538 -167.11109 L-40.40416 -166.831 L-40.549509 -166.59492 L-41.238495 -166.26769 L-42.521969 -166.28921 L-43.485681 -166.55653 L-43.615648 -166.37686 L-43.783228 -166.88823 L-43.939926 -166.92754 L-44.383919 -166.61421 L-46.133158 -168.15639 L-46.978256 -168.47118 L-47.323751 -167.20483 L-47.962533 -166.44965 L-48.245835 -165.75614 L-48.187043 -165.27271 L-47.234097 -163.81135 L-47.353419 -162.43331 L-47.520782 -160.97581 L-47.878885 -159.62755 L-48.088434 -159.18578 L-49.244455 -158.71379 L-49.502747 -158.44565 L-49.57179 -158.10183 L-49.325068 -157.79839 L-49.629171 -157.66191 L-49.550245 -157.30308 L-49.693474 -157.11687 L-50.643675 -156.75291 L-50.80776 -156.84544 L-51.051152 -156.68747 L-50.990644 -156.44262 L-51.292697 -156.30996 L-52.366033 -156.15208 L-53.712559 -156.1677 L-54.308779 -157.01418 L-54.253676 -157.29504 L-54.654579 -157.36916 L-54.709415 -157.22489 L-56.020729 -157.07559 L-57.148592 -157.26733 L-59.434657 -156.81967 L-59.427204 -155.93243 L-60.900423 -154.9022 L-61.813296 -154.5633 L-63.379549 -154.53294 L-64.758435 -152.36493 L-65.583868 -151.73867 L-66.832539 -150.10083 L-67.760815 -150.80845 L-67.944134 -151.50424 L-68.602099 -151.967 L-68.470796 -152.28021 L-69.04025 -152.98263 L-69.924826 -153.51 L-70.273829 -152.5739 L-72.525015 -152.87631 L-75.564448 -152.70093 L-76.147693 -152.11029 L-77.049684 -151.58328 L-77.505261 -151.03542 L-78.266294 -151.41958 L-77.737211 -151.79807 L-77.989384 -151.89432 L-77.866455 -152.15127 L-79.038663 -152.7485 L-79.71352 -153.2692 L-79.993654 -154.06509 L-79.824107 -155.0981 L-80.935191 -156.57063 L-81.326933 -157.4318 L-81.252093 -157.6707 L-81.524081 -157.76941 L-81.598168 -158.11244 L-81.03337 -158.59213 L-81.265782 -159.82637 L-81.631025 -160.43783 L-82.327952 -160.94678 L-83.107963 -161.32416 L-83.300727 -161.35671 L-83.338273 -161.20237 L-83.556186 -161.45579 L-84.337952 -162.69614 L-84.633201 -162.92249 L-84.443841 -163.04023 L-84.627714 -163.45124 L-84.77008 -163.41186 L-85.199116 -164.95518 L-85.088452 -165.1797 L-85.923221 -165.76664 L-85.829579 -165.58389 L-86.029408 -165.42299 L-86.211426 -165.66991 L-86.449308 -165.65036 L-86.572533 -165.92847 L-86.466294 -166.01122 L-87.203239 -166.65191 L-87.44491 -166.532 L-87.61139 -166.0624 L-87.809355 -166.2437 L-87.886797 -166.07089 L-88.101309 -166.07668 L-88.121209 -166.81616 L-88.538941 -166.9459 L-88.898075 -167.31441 L-88.684235 -167.53012 L-88.786626 -167.84107 L-89.087097 -168.13427 L-89.60953 -168.32524 L-89.746874 -168.22599 L-89.590769 -168.10568 L-89.698743 -167.79333 L-91.224131 -168.41526 L-92.160952 -168.4104 L-92.150518 -167.80554 L-92.379101 -167.98808 L-92.791798 -167.52269 L-93.325577 -167.22708 L-92.512328 -166.34034 L-92.733042 -166.02496 L-93.564165 -165.41925 L-94.150303 -165.6738 L-94.461209 -165.0133 L-94.327425 -164.92692 L-94.521142 -164.68829 L-94.717604 -164.71363 L-94.562778 -164.90353 L-94.807329 -165.07865 L-94.692688 -165.22274 L-94.890968 -165.30149 L-95.455535 -167.51137 L-96.343446 -167.73565 L-96.378244 -167.46176 L-97.08649 -167.60034 L-98.992251 -167.22994 L-99.78196 -166.16374 L-100.33028 -165.98029 L-100.66371 -165.93798 L-100.74003 -166.20978 L-100.99798 -166.37354 L-102.16474 -165.83772 L-102.60319 -165.90372 L-103.3476 -165.59536 L-104.93308 -165.59727 L-105.69718 -166.51251 L-107.70577 -165.95663 L-111.14463 -165.86535 L-113.90597 -165.25317 L-115.16981 -165.21656 L-116.11072 -165.17416 L-118.33989 -164.53778 L-119.64725 -164.40096 L-120.96527 -164.01133 L-121.06612 -164.76275 L-121.3914 -164.82197 L-121.53668 -165.19884 L-122.05381 -165.0776 L-123.02279 -164.72895 L-123.06905 -165.29311 L-126.00324 -164.45619 L-126.11597 -164.12473 L-126.87078 -164.32974 L-126.83486 -164.62957 L-128.14313 -164.7264 L-129.52331 -164.4177 L-131.24944 -163.80444 L-133.19483 -162.86364 L-135.11358 -161.41794 L-135.71712 -161.19727 L-136.75115 -160.75304 L-139.57187 -159.06891 L-140.48985 -158.6757 L-140.71218 -158.73458 L-141.53305 -158.22035 L-143.1673 -157.59403 L-144.39839 -156.10176 L-146.34054 -154.51819 L-146.93279 -153.77887 L-147.45328 -153.46984 L-148.17327 -153.46361 L-149.5652 -152.01843 L-149.23526 -150.17509 L-148.72327 -149.4111 L-148.12938 -148.92805 L-148.3115 -148.27938 L-148.47469 -148.15864 L-148.91272 -148.10028 L-149.76641 -148.37498 L-150.03402 -148.31903 L-150.09968 -148.00601 L-149.77441 -147.5428 L-149.99995 -147.2604 L-150.32931 -147.18488 L-150.8781 -147.37343 L-150.72879 -148.29779 L-150.87032 -149.01545 L-151.67283 -149.07198 L-152.93574 -148.21902 L-153.12832 -147.91363 L-152.77715 -147.44617 L-152.74643 -146.62756 L-152.18466 -146.00051 L-152.47089 -145.81964 L-153.464 -145.68997 L-153.67018 -144.93266 L-154.11037 -144.8974 L-154.42068 -145.2455 L-155.06757 -145.26981 L-155.535 -145.58223 L-156.13773 -145.47986 L-157.45761 -145.77159 L-157.78551 -144.92366 L-157.69681 -144.1335 L-157.51576 -143.92793 L-157.37907 -143.9782 L-156.98516 -144.90076 L-156.64996 -145.11338 L-156.11764 -145.18252 L-155.88751 -145.0632 L-155.78558 -144.86363 L-155.8703 -144.41582 L-156.75436 -142.96352 L-157.18517 -142.68406 L-157.48527 -142.78867 L-157.68098 -143.59644 L-157.96339 -144.0538 L-158.39688 -144.23392 L-158.79269 -144.11369 L-159.34698 -142.94653 L-159.19837 -141.40832 L-159.57667 -140.77466 L-159.91948 -140.37773 L-160.48 -140.28805 L-160.52948 -140.62274 L-160.03333 -140.8711 L-160.01619 -141.43874 L-160.29484 -141.69102 L-161.50154 -142.00155 L-161.74241 -141.88129 L-162.4676 -140.86437 L-163.29766 -140.87854 L-164.52499 -140.46047 L-164.76513 -140.18676 L-164.6945 -139.94233 L-163.90195 -139.60034 L-163.21358 -138.96053 L-163.29398 -138.5307 L-164.4447 -137.52766 L-164.47245 -137.19818 L-164.20817 -137.03711 L-165.09021 -136.65307 L-165.34308 -136.79821 L-165.92258 -137.68786 L-166.64706 -138.02616 L-167.471 -137.66505 L-168.67506 -137.59613 L-169.64806 -137.7731 L-171.48779 -137.43176 L-173.36442 -137.2067 L-174.05128 -138.31131 L-174.60016 -139.50069 L-175.97454 -141.14671 L-176.99321 -142.04093 L-177.34288 -142.04706 L-179.17004 -141.40816 L-182.55189 -140.80474 L-182.44387 -140.44974 L-183.09201 -140.26287 L-183.3552 -140.22621 L-184.80277 -140.71264 L-185.28856 -141.27982 L-185.94894 -141.29492 L-186.40028 -141.00753 L-186.61089 -140.40425 L-187.23463 -139.57659 L-188.48505 -138.70558 L-189.36535 -137.35346 L-190.49443 -136.26038 L-190.70167 -135.81388 L-192.25135 -135.04361 L-192.56732 -134.70685 L-193.46674 -134.609 L-193.27035 -134.81251 L-193.35377 -135.13316 L-194.25845 -135.05082 L-194.94099 -134.24124 L-194.88859 -133.8219 L-195.60106 -133.18097 L-195.75688 -132.79682 L-196.75962 -132.23383 L-197.00581 -132.60668 L-199.22801 -132.47831 L-199.44922 -132.63126 L-201.58006 -132.74323 L-204.17399 -130.93928 L-206.5586 -130.21453 L-208.55675 -129.36602 L-210.62235 -128.85462 L-211.63555 -127.71899 L-211.72699 -126.37693 L-212.04747 -125.93722 L-212.00127 -125.50991 L-212.26535 -124.14099 L-212.74444 -123.65906 L-213.89408 -123.2567 L-214.69096 -122.62287 L-215.71005 -122.38325 L-215.67107 -122.12684 L-216.22039 -121.98365 L-216.19413 -121.76404 L-216.9065 -120.82317 L-217.20333 -120.89134 L-218.66991 -122.21523 L-219.42315 -121.25377 L-220.35006 -120.99435 L-221.61021 -121.22524 L-223.028 -120.86778 L-224.70547 -119.85811 L-226.01702 -118.34546 L-227.49548 -117.88136 L-227.75675 -117.57077 L-228.02821 -116.40402 L-229.91829 -115.45236 L-230.36724 -114.91336 L-230.78972 -114.76726 L-231.11497 -114.41261 L-232.44727 -114.35491 L-233.00157 -113.96342 L-233.7171 -113.79537 L-233.90722 -113.9569 L-235.44344 -114.12517 L-235.97809 -113.78484 L-236.71216 -114.98571 L-237.44724 -115.63935 L-238.79618 -114.65342 L-239.69219 -115.258 L-240.07825 -114.94333 L-240.92444 -114.66228 L-241.05108 -114.36402 L-241.74479 -113.89292 L-241.37417 -112.87759 L-241.99792 -112.03695 L-242.23933 -111.18509 L-241.81697 -110.74374 L-241.45078 -109.97294 L-242.23973 -109.79903 L-242.06829 -108.40859 L-242.46411 -107.18583 L-243.72475 -106.50896 L-244.60508 -105.76165 L-244.80212 -105.49843 L-244.62345 -105.12827 L-245.08077 -104.60331 L-246.07981 -104.70732 L-246.86993 -104.40626 L-247.49483 -104.49469 L-247.88512 -104.18949 L-247.60387 -103.83785 L-247.63205 -103.39519 L-247.32197 -103.1126 L-246.9764 -103.0622 L-246.85281 -102.90316 L-247.00874 -102.75552 L-246.95836 -102.56675 L-246.42434 -102.33444 L-247.34084 -100.59741 L-248.29727 -100.07311 L-249.09805 -100.01862 L-249.60049 -99.656318 L-250.34846 -99.677523 L-250.43045 -98.8788 L-250.68872 -98.759472 L-251.402 -98.650813 L-251.90466 -98.77562 L-252.41648 -98.613331 L-252.47817 -98.460372 L-253.19963 -98.298483 L-253.50108 -98.017253 L-252.86689 -97.894588 L-252.84524 -97.623134 L-252.43904 -97.118631 L-251.91804 -96.838066 L-251.83144 -95.044182 L-251.43931 -94.620204 L-252.48867 -94.321766 L-252.9289 -94.001806 L-252.92501 -93.826084 L-253.49939 -93.230677 L-254.11148 -92.828752 L-254.74905 -92.706285 L-255.30413 -92.247178 L-255.22434 -92.057468 L-254.62805 -91.812471 L-254.49582 -91.616759 L-254.78599 -90.895142 L-254.58681 -90.534896 L-254.66343 -90.207332 L-255.03138 -89.641221 L-255.10016 -88.416059 L-254.83823 -88.620696 L-254.93735 -89.013991 L-254.60549 -89.290495 L-254.72106 -89.395844 L-254.63669 -89.745622 L-253.88754 -90.28529 L-253.78782 -90.126582 L-253.95163 -89.940153 L-253.67203 -89.813823 L-253.51842 -89.904056 L-253.08014 -90.691106 L-252.35495 -90.082856 L-252.5277 -89.919128 L-252.76957 -90.177088 L-252.95156 -89.731192 L-252.75935 -89.344769 L-252.42788 -89.726646 L-252.26702 -89.694256 L-252.26508 -89.241356 L-252.49477 -88.950995 L-252.35834 -88.714078 L-252.01427 -88.372277 L-251.67968 -88.559166 L-251.39486 -88.516615 L-251.5047 -88.035164 L-251.13038 -87.522752 L-251.82246 -87.424726 L-251.34641 -86.831165 L-251.01175 -87.168762 L-251.03612 -86.832134 L-251.60908 -86.61247 L-251.61756 -86.461809 L-251.31203 -86.486189 L-251.28875 -86.165444 L-250.76017 -85.603496 L-250.31648 -84.326218 L-249.6529 -84.732525 L-248.37602 -84.827103 L-247.02867 -85.778543 L-246.61786 -85.86906 L-246.6183 -85.984378 L-246.15252 -85.602363 L-246.23323 -85.454729 L-245.98104 -84.674936 L-246.57502 -84.214801 L-246.3204 -83.549017 L-246.36461 -83.070789 L-247.68102 -82.775912 L-247.95996 -82.544832 L-248.29878 -82.569707 L-249.27252 -82.05251 L-249.34798 -82.17072 L-250.12994 -82.113233 L-249.18197 -80.660976 L-250.29034 -80.140994 L-251.1402 -79.27062 L-251.16138 -78.786043 L-250.81286 -78.343067 L-250.79174 -77.721989 L-250.59741 -77.311949 L-250.74288 -76.880782 L-250.74242 -76.74716 L-250.58889 -76.743454 L-250.68279 -76.154273 L-249.9836 -76.479324 L-249.56417 -75.942818 L-249.68715 -75.911396 L-249.65886 -75.448506 L-248.89575 -74.399914 L-249.44179 -72.98976 L-249.62558 -73.003881 L-249.86406 -72.772299 L-250.60156 -72.914911 L-250.9788 -72.735613 L-251.64454 -73.241881 L-252.52839 -73.166088 L-252.67269 -72.984729 L-253.46605 -72.6932 L-253.34668 -72.346488 L-253.65551 -71.846004 L-253.29798 -71.351408 L-252.90396 -71.106419 L-252.6202 -71.16196 L-252.33761 -70.716949 L-252.07622 -70.805185 L-251.77111 -70.686991 L-251.93681 -70.410853 L-251.58543 -70.109515 L-251.95554 -69.820362 L-251.57982 -69.595118 L-251.48219 -69.175738 L-251.27235 -69.309214 L-251.11433 -69.135619 L-250.88956 -69.151696 L-250.18724 -69.550957 L-248.87672 -69.162063 L-248.12699 -69.222559 L-247.8066 -69.022926 L-247.06487 -69.019344 L-246.4312 -68.785128 L-246.05915 -69.074846 L-245.19891 -69.356856 L-244.98593 -68.804963 L-245.69699 -68.583673 L-245.7334 -68.390866 L-245.70275 -68.153189 L-245.2444 -67.969408 L-246.2583 -67.41068 L-246.8231 -66.903142 L-247.1567 -66.334959 L-246.58154 -65.399507 L-246.6539 -65.288036 L-247.8928 -65.167812 L-250.44218 -66.234614 L-250.6731 -66.224654 L-250.87956 -65.865121 L-251.07941 -65.915771 L-251.83971 -65.279248 L-252.31074 -65.560719 L-252.83265 -65.33719 L-252.84448 -65.161809 L-253.31031 -65.358927 L-252.82047 -65.765041 L-252.86946 -65.920902 L-253.78869 -66.209722 L-254.04925 -66.500916 L-253.97864 -66.820662 L-254.23497 -67.056258 L-254.21977 -67.216344 L-254.341 -67.136189 L-255.26929 -67.763203 L-255.55016 -68.924319 L-256.16609 -70.059367 L-256.53728 -70.050395 L-256.88017 -70.246784 L-256.86506 -70.800683 L-256.32202 -71.447632 L-256.13427 -72.31497 L-256.17962 -72.782164 L-256.46619 -73.374405 L-256.87689 -73.632686 L-257.70737 -73.101011 L-258.60759 -73.097447 L-258.44957 -72.651541 L-259.45508 -72.665979 L-259.65426 -72.43841 L-259.66436 -71.922666 L-259.37001 -71.367873 L-259.7035 -70.799898 L-259.37997 -70.32433 L-261.21112 -69.739172 L-261.5967 -70.297751 L-262.25703 -70.479709 L-262.39869 -70.661882 L-263.22898 -70.560504 L-263.69323 -70.093006 L-263.60887 -69.071499 L-263.82994 -68.548493 L-262.52325 -68.290907 L-261.73861 -68.511005 L-261.83382 -68.294718 L-261.59024 -67.662502 L-260.87142 -67.266477 L-259.54934 -67.362285 L-259.2653 -67.101648 L-258.78932 -67.026987 L-258.89732 -66.631895 L-258.71061 -66.329186 L-259.31433 -65.633315 L-259.18597 -65.500708 L-259.17036 -64.360222 L-257.82375 -63.242819 L-257.19865 -62.361874 L-255.79975 -61.123507 L-255.67559 -59.982288 L-255.37542 -60.210423 L-254.82327 -60.230531 L-254.60529 -60.54862 L-254.24146 -60.493285 L-254.16649 -60.252967 L-254.34863 -59.334005 L-253.85204 -58.651808 L-253.60216 -57.941878 L-253.09365 -58.469411 L-252.97662 -58.328497 L-252.57735 -58.6784 L-252.15266 -58.464325 L-251.96304 -58.922826 L-250.97674 -58.96653 L-250.53848 -58.561923 L-250.42433 -58.772687 L-250.68157 -57.341529 L-250.19521 -56.838108 L-250.07727 -56.49152 L-249.58253 -56.164742 L-248.97914 -56.441215 L-248.84904 -56.259914 L-248.6077 -56.242798 L-248.117 -56.776995 L-246.37072 -57.349501 L-245.96327 -57.822457 L-245.66516 -57.351375 L-244.98287 -57.457993 L-244.57251 -55.982334 L-244.34889 -55.985962 L-244.21997 -55.283699 L-244.02394 -55.291932 L-244.03681 -55.106942 L-244.16651 -55.09711 L-244.13862 -54.772378 L-243.82215 -54.783959 L-243.86412 -54.385995 L-242.91238 -52.482091 L-242.97252 -52.154208 L-243.32493 -52.047406 L-243.62647 -52.25999 L-243.97584 -51.945719 L-243.65439 -51.344994 L-243.24302 -51.026397 L-242.57749 -50.707284 L-241.25251 -50.39585 L-240.69874 -49.878514 L-240.54535 -49.911259 L-240.45826 -50.332231 L-240.72109 -51.190754 L-240.54653 -52.006515 L-240.1103 -51.800015 L-239.52048 -51.162405 L-239.11414 -51.00343 L-237.92382 -51.485248 L-237.35999 -51.507248 L-236.06771 -52.486566 L-235.57657 -52.598204 L-235.25213 -52.181406 L-235.2792 -51.948848 L-235.55963 -51.316226 L-236.19039 -50.608296 L-236.24397 -49.836255 L-235.7751 -48.571895 L-235.87271 -48.079478 L-235.47202 -47.320567 L-235.56766 -46.819751 L-235.32897 -46.1869 L-234.83538 -45.641474 L-234.24678 -45.454677 L-234.01198 -44.873712 L-234.055 -44.450998 L-234.46823 -43.641125 L-234.32964 -43.36791 L-233.58703 -42.708458 L-233.24084 -42.803158 L-232.64063 -43.31797 L-232.54071 -43.140269 L-232.22717 -43.282824 L-231.88992 -42.909584 L-231.26376 -43.104817 L-231.2705 -42.981586 L-230.94923 -42.937811 L-230.6928 -43.56625 L-230.11198 -43.994315 L-229.75753 -43.409453 L-229.34768 -43.875451 L-229.08493 -43.789339 L-228.76114 -43.297696 L-228.49069 -43.154643 L-228.56026 -42.92696 L-228.34476 -42.853397 L-229.24891 -41.160566 L-228.4021 -40.728351 L-228.5173 -40.560429 L-228.97923 -40.326965 L-230.63002 -40.339651 L-230.62945 -39.618434 L-231.42901 -39.069986 L-232.64637 -38.764951 L-232.7588 -38.675948 L-232.64252 -38.321015 L-232.03975 -38.621324 L-231.50357 -38.448999 L-231.27785 -38.606448 L-231.09009 -38.545272 L-230.78054 -38.923612 L-229.43627 -39.02408 L-229.20883 -38.922287 L-229.11092 -39.028394 L-228.336 -38.848318 L-228.11837 -39.19537 L-227.67393 -39.3436 L-227.5531 -39.586126 L-226.9013 -39.696015 L-226.60739 -40.022731 L-226.32198 -40.054155 L-226.12925 -40.689117 L-225.07723 -42.497971 L-224.64128 -42.618971 L-223.4045 -42.01656 L-222.21445 -40.3207 L-220.76274 -39.728596 L-220.41427 -39.136074 L-220.29504 -38.473319 L-220.45317 -38.365226 L-220.30968 -38.211729 L-220.24471 -38.302538 L-220.28713 -38.107276 L-219.98941 -38.311955 L-219.85712 -38.157828 L-219.86204 -38.329381 L-219.61281 -38.259548 L-219.18105 -37.538467 L-218.94953 -37.489782 L-218.91354 -37.295002 L-218.78906 -37.411386 L-218.70155 -37.310054 L-218.81846 -37.014258 L-217.93425 -37.110793 L-217.75413 -36.92012 L-217.85953 -36.600184 L-217.73637 -36.535005 L-217.34548 -36.454359 L-217.14168 -36.643154 L-216.73293 -36.420678 L-216.48546 -36.495935 L-216.01579 -35.788159 L-216.25125 -35.312989 L-215.93953 -35.182633 L-215.68132 -34.525982 L-214.99565 -34.255159 L-214.78721 -33.988223 L-215.30627 -32.505948 L-214.16724 -32.141682 L-213.99907 -31.616644 L-213.24976 -31.38995 L-213.41922 -31.128213 L-213.79204 -31.169944 L-214.04799 -30.937641 L-213.95572 -30.651709 L-214.05884 -30.708668 L-213.48445 -30.339053 L-213.58179 -29.595379 L-213.44966 -29.49014 L-213.2883 -29.603218 L-213.13904 -29.442834 L-212.52176 -29.527907 L-211.91828 -29.121729 L-212.01511 -28.729262 L-212.39855 -28.72365 L-212.72925 -28.025082 L-212.48675 -27.199569 L-212.89849 -26.084934 L-212.27694 -25.734771 L-211.98563 -26.029944 L-211.7698 -25.790564 L-211.9265 -25.066507 L-211.84321 -24.83906 L-211.14592 -24.27825 L-210.61384 -24.311126 L-210.27812 -24.101199 L-210.33304 -23.610458 L-210.96323 -23.742874 L-211.22422 -23.55569 L-211.16368 -23.347391 L-210.82511 -23.131212 L-210.72273 -22.744712 L-210.3624 -22.731295 L-209.72448 -23.213623 L-208.836 -22.759434 L-208.05831 -22.73386 L-207.57111 -22.174014 L-207.75402 -21.910628 L-208.17128 -21.793038 L-208.31009 -21.433149 L-208.0271 -21.582442 L-207.74416 -21.380077 L-206.82523 -21.412643 L-206.02469 -20.983128 L-205.63028 -20.932914 L-205.30513 -21.061969 L-205.36253 -21.255787 L-204.82344 -21.715773 L-204.53914 -22.589477 L-203.58887 -22.493591 L-202.98893 -22.025116 L-202.46226 -21.923776 L-201.88494 -22.236048 L-201.94661 -22.760712 L-201.75205 -23.290143 L-201.13121 -23.516706 L-201.00839 -23.760383 L-200.64341 -23.622687 L-200.45677 -23.520446 L-200.68001 -23.187661 L-200.11863 -22.57838 L-199.1388 -20.650888 L-198.94989 -20.559154 L-198.99436 -20.243878 L-198.82473 -20.109044 L-198.58429 -19.242163 L-198.24087 -19.421269 L-197.86167 -19.394081 L-197.41034 -18.872262 L-197.80381 -18.658205 L-197.7896 -18.062445 L-198.26481 -17.964831 L-198.2552 -17.827272 L-197.43009 -17.992799 L-196.95969 -17.837955 L-197.17698 -18.595833 L-196.51351 -18.308562 L-196.38458 -18.944313 L-196.20981 -19.135427 L-194.42921 -19.876936 L-194.3086 -19.678182 L-193.92148 -19.943238 L-193.43622 -19.866077 L-193.49416 -19.687973 L-193.1087 -19.525028 L-192.9441 -18.778429 L-192.37308 -18.172373 L-192.96718 -17.963574 L-192.98322 -17.698725 L-191.89106 -17.14258 L-193.00236 -15.525784 L-193.31784 -15.78466 L-193.69773 -15.600068 L-193.87406 -15.258233 L-193.53979 -14.829075 L-193.11877 -15.337506 L-192.9668 -15.2542 L-193.28665 -14.739515 L-192.6839 -14.002333 L-191.28589 -13.037017 L-190.1906 -14.018569 L-189.93525 -14.563819 L-189.68495 -14.748558 L-189.52318 -14.621156 L-188.67232 -15.152877 L-188.43683 -15.664717 L-188.17415 -15.871697 L-188.20752 -16.264216 L-188.03534 -16.596611 L-187.4816 -17.232801 L-187.37838 -17.192661 L-187.35801 -17.40079 L-185.89627 -18.227614 L-185.5662 -18.140342 L-185.26833 -16.784434 L-185.34322 -16.123276 L-185.009 -15.347176 L-184.99098 -14.777823 L-184.79145 -14.352943 L-184.45568 -14.208045 L-183.27294 -14.566498 L-182.88199 -14.146259 L-181.85268 -14.615653 L-181.61048 -14.17623 L-181.16505 -13.909443 L-180.87063 -14.492552 L-180.52584 -14.737527 L-179.99779 -13.901048 L-179.73312 -13.990816 L-179.043 -13.72177 L-177.44011 -14.705674 L-177.09138 -14.579379 L-177.00388 -14.376982 L-177.15348 -13.953831 L-177.51052 -13.58048 L-176.34005 -13.042115 L-175.54809 -13.66967 L-174.1819 -13.794825 L-173.38909 -14.11022 L-172.5733 -13.935331 L-172.00061 -13.53371 L-172.19002 -13.151478 L-172.11984 -12.78727 L-172.30949 -12.184908 L-172.71699 -11.643913 L-172.71014 -11.176329 L-172.37053 -10.58796 L-172.05598 -10.826824 L-172.12128 -10.467679 L-171.76754 -9.9570875 L-171.4368 -9.9142544 L-171.04823 -10.163852 L-169.73258 -9.9368074 L-168.49587 -10.373555 L-167.94484 -10.397729 L-167.60392 -10.250912 L-167.13987 -10.628868 L-167.39877 -9.2274679 L-167.83005 -8.1654622 L-167.83985 -7.6704759 L-166.90535 -6.6358578 L-166.88511 -6.1550433 L-166.27961 -4.1484943 L-164.88753 -3.0886861 L-164.64465 -2.7063362 L-164.73645 -2.166977 L-164.62172 -0.7003282 L-164.74431 -0.050540666 L-164.41262 0.39099578 L-164.34516 0.86750119 L-164.09374 0.86254417 L-163.74313 1.4480132 L-163.10493 1.6152134 L-162.78432 2.0268169 L-162.80429 2.7815926 L-163.01885 3.0743296 L-163.00906 3.4461752 L-162.57605 4.7569499 L-162.59847 5.46495 L-162.41758 5.7638717 L-161.32805 6.2683064 L-160.62174 6.9132361 L-158.3407 8.2956429 L-158.08599 9.0077636 L-158.37991 8.9412544 L-158.43834 8.6214966 L-158.83303 8.8421202 L-158.91797 9.2013519 L-158.67537 9.6705984 L-158.5357 10.877804 L-158.33142 11.14795 L-157.82526 10.93867 L-157.20123 11.220871 L-156.96152 11.409784 L-156.99213 11.612419 L-156.67609 12.045896 L-156.37256 11.951271 L-156.35088 12.128384 L-156.5201 12.203559 L-156.36446 12.767474 L-157.00427 13.631027 L-157.39189 13.834582 L-157.94045 13.385801 L-157.99695 13.563858 L-158.18678 13.451487 L-158.23841 13.673997 L-159.19683 14.187901 L-160.20305 14.113453 L-160.55247 13.00087 L-160.45357 12.448657 L-160.89444 12.540976 L-160.81762 14.088054 L-160.22434 14.493545 L-160.90329 15.766885 L-159.801 15.839379 L-159.16165 15.373936 L-157.91406 15.553379 L-157.80473 15.844392 L-157.94323 16.048353 L-157.77521 16.509014 L-156.74543 17.032921 L-155.94653 16.753413 L-155.67846 16.364015 L-155.25604 16.732016 L-154.47422 16.54824 L-154.03458 16.852906 L-153.40719 16.855065 L-152.71852 16.593602 L-153.02487 17.36743 L-153.66856 17.410027 L-153.26537 17.487262 L-153.14571 17.696778 L-153.61827 18.604518 L-153.64364 18.806014 L-153.43568 18.876228 L-152.96558 18.360406 L-152.73701 17.467604 L-152.12636 16.580071 L-151.34019 16.211487 L-150.84892 16.187663 L-150.86414 16.02223 L-150.69531 15.955822 L-150.23739 16.172198 L-149.8272 16.729344 L-149.65888 16.717491 L-149.69823 17.094968 L-149.32174 17.152322 L-149.05358 18.213937 L-148.15522 18.576193 L-147.96432 18.370622 L-147.67195 18.59592 L-147.95487 19.157223 L-147.46737 19.037443 L-147.11038 19.279528 L-147.1479 19.425495 L-146.79382 19.554357 L-146.56192 19.290132 L-146.5602 19.578279 L-146.23213 19.782449 L-146.21072 20.064893 L-145.57926 20.094159 L-144.91332 20.624312 L-144.14981 20.753912 L-143.76576 21.598604 L-143.51007 21.820669 L-143.50555 22.183164 L-144.21931 22.43825 L-143.88462 24.032932 L-144.19661 24.256693 L-144.26027 25.114874 L-144.97541 25.05383 L-145.09756 25.337911 L-145.40345 25.398992 L-146.09795 25.999108 L-146.04123 26.397657 L-146.82548 26.692247 L-147.71145 26.578399 L-147.83236 26.826173 L-148.68159 26.753406 L-149.05427 26.44415 L-149.80902 26.232665 L-150.1849 26.760516 L-150.60415 27.009606 L-151.02234 27.759462 L-151.5268 28.015276 L-151.82975 28.496432 L-152.79261 29.085901 L-153.04393 29.065242 L-153.28182 28.816017 L-153.66372 29.090699 L-153.74352 29.417223 L-153.55744 29.998892 L-154.20471 31.575257 L-154.14332 32.135466 L-153.09667 33.289199 L-152.42801 35.471688 L-152.27407 35.527945 L-152.30782 35.373777 L-151.19014 34.201712 L-151.11352 33.77697 L-150.9045 33.568568 L-150.99391 33.43919 L-150.53124 33.258482 L-149.98903 32.789405 L-149.61072 32.78817 L-149.56679 33.043151 L-149.37882 33.037601 L-148.92868 32.768344 L-148.80639 32.419305 L-148.57076 32.435771 L-147.44413 33.126024 L-147.07862 33.105265 L-146.89793 32.614915 L-146.56723 32.482909 L-146.23732 31.895788 L-145.84623 32.808561 L-144.58474 33.459138 L-144.11002 34.054909 L-143.63132 33.8697 L-143.37015 34.329171 L-143.50643 35.814636 L-144.01926 36.000142 L-144.37734 36.48467 L-144.21227 36.643371 L-143.67918 36.716978 L-143.72912 37.233512 L-143.40418 38.046009 L-143.009 38.490852 L-142.98361 39.01375 L-142.06128 39.971776 L-140.60188 40.676253 L-140.51829 41.029967 L-140.42357 40.952537 L-140.03165 41.290132 L-139.73589 41.283055 L-139.71028 41.141335 L-139.15334 41.45773 L-138.498 41.384775 L-137.92529 41.876441 L-137.58387 41.767967 L-137.69683 41.918814 L-137.32377 41.695381 L-136.84411 42.116888 L-136.60618 41.593344 L-135.90035 41.894784 L-135.35704 41.623802 L-134.97264 41.6623 L-134.89314 41.229476 L-134.38641 40.760301 L-134.3165 39.591739 L-134.23253 39.483489 L-134.10974 39.671534 L-134.01098 39.583367 L-134.1227 38.672036 L-133.70194 38.666696 L-133.60477 38.514681 L-133.59453 38.185265 L-133.82959 37.997028 L-133.74191 37.555605 L-133.42446 37.247232 L-133.34179 37.437794 L-133.00784 37.373688 L-132.80412 37.105238 L-132.92526 36.674324 L-132.66202 36.62534 L-132.49832 36.200669 L-131.57557 36.797703 L-131.34 35.988055 L-130.91322 35.834471 L-130.86468 34.954807 L-130.60222 34.840112 L-130.54804 34.469864 L-130.22804 34.37919 L-130.33253 33.883672 L-130.45226 33.881406 L-130.26476 33.559245 L-130.06182 33.611159 L-130.20572 33.503868 L-130.04966 33.350146 L-129.77816 33.323327 L-129.72711 33.54508 L-129.59114 33.456918 L-129.60437 33.709471 L-129.44757 33.668317 L-129.4486 33.786939 L-129.08673 33.650899 L-128.949 33.967247 L-129.19351 34.436206 L-128.86098 34.785152 L-128.87127 35.413961 L-128.07789 35.931912 L-128.02749 36.338576 L-127.77511 36.626244 L-127.27955 36.625177 L-127.15149 37.095877 L-126.65702 36.866093 L-126.63646 37.216518 L-126.29485 37.306384 L-125.27078 37.206988 L-124.72096 36.93709 L-124.38517 37.390804 L-123.8549 37.506458 L-122.98817 37.981431 L-122.9414 37.613739 L-122.36743 37.331796 L-122.22697 36.929148 L-121.70814 36.785522 L-121.38563 36.017745 L-121.58456 35.472005 L-121.39056 35.134614 L-121.15939 35.134952 L-120.145 35.848282 L-119.49174 35.687217 L-118.92143 35.93555 L-117.77523 35.102024 L-117.81806 34.933392 L-117.44543 34.541778 L-116.40912 34.13461 L-116.21293 34.334314 L-116.07715 34.989697 L-115.40149 35.165344 L-115.16682 34.871986 L-115.11268 34.453469 L-114.67636 33.93511 L-114.7764 33.868857 L-113.89982 33.364229 L-113.78207 32.792517 L-113.9016 32.680361 L-113.71798 32.538146 L-111.63167 32.664941 L-110.88941 31.951658 L-110.34671 31.932024 L-110.02841 31.689438 L-108.88941 31.373163 L-108.10945 30.776025 L-106.79414 28.383397 L-106.4171 27.943678 L-105.24228 27.003069 L-104.86448 26.852812 L-104.04518 26.901149 L-104.49435 25.857416 L-104.74461 24.645694 L-104.49363 24.65538 L-104.11101 24.327933 L-103.15053 23.934616 L-102.82799 23.954582 L-102.58001 23.276996 L-102.19405 22.795806 L-102.32105 22.530646 L-101.91863 22.344263 L-101.77477 22.627068 L-101.01738 22.128864 L-100.44557 22.783898 L-100.1948 23.376041 L-99.086414 22.373395 L-98.641437 22.252412 L-98.278935 22.531959 L-98.016658 22.0689 L-97.083071 21.547519 L-95.309859 21.463795 L-94.325383 21.104391 L-93.782481 21.069199 L-93.525871 19.960913 L-92.911254 19.05632 L-92.249601 18.501364 L-91.688635 18.448294 L-90.756035 18.767872 L-90.062555 17.96659 L-89.670605 16.219865 L-88.375445 15.11141 L-87.876059 14.113466 L-87.59762 13.906777 L-87.311006 13.947885 L-86.702888 12.849297 L-85.67007 12.214612 L-85.868359 13.042722 L-85.800526 13.339799 L-84.585918 14.514371 L-83.945699 14.698137 L-83.680264 15.056922 L-84.038786 15.896393 L-84.290882 16.081056 L-84.344967 16.753063 L-83.958694 17.286686 L-83.833083 17.151001 L-83.131141 17.099242 L-82.797871 16.69887 L-82.4711 17.006364 L-81.920567 17.01204 L-81.824537 17.64704 L-81.528251 17.919639 L-81.402164 17.883448 L-81.403253 17.480941 L-80.744201 17.773167 L-80.692351 17.998325 L-80.409949 17.89953 L-80.425441 17.678319 L-80.263275 17.803441 L-79.386618 17.500071 L-78.476451 19.371502 L-77.538229 19.439835 L-76.355884 18.561045 L-75.713092 18.609863 L-74.826094 18.292722 L-73.575444 18.11974 L-73.236319 18.409832 L-73.195655 18.667515 L-73.46594 20.271283 L-73.022411 20.363695 L-72.16077 20.249334 L-71.264042 20.034191 L-70.470342 19.625721 L-69.360678 19.493795 L-68.290017 19.673776 L-68.123695 19.887103 L-68.133375 20.449375 L-68.132061 21.120694 L-68.378085 22.08944 L-69.190489 22.894467 L-68.966468 24.1996 L-69.941384 25.904732 L-69.725726 26.481524 L-69.687696 27.167266 L-70.253716 27.841056 L-70.341708 28.147134 L-70.174418 28.311663 L-70.784524 28.404774 L-72.268176 27.942543 L-72.139428 29.101382 L-72.43475 29.354469 L-72.587581 29.758804 L-72.435439 30.451863 L-73.218505 30.944715 L-74.200001 30.703404 L-74.108346 31.177127 L-74.933617 31.472794 L-74.62403 32.525513 L-74.845013 32.687712 L-75.490544 32.575181 L-75.401492 33.679087 L-75.701674 34.03259 L-75.8356 33.997297 L-75.930416 34.447047 L-76.294736 34.934527 L-76.192067 35.237061 L-76.509536 35.390718 L-76.489592 35.625175 L-76.786149 35.310941 L-76.7911 34.685437 L-77.191341 34.71732 L-77.390439 34.898886 L-78.384065 34.807424 L-79.988528 35.22444 L-80.787139 35.082886 L-81.734255 35.350361 L-82.501605 35.12322 L-83.766172 35.228505 L-84.402113 35.520614 L-85.128036 35.482596 L-85.266572 35.229985 L-86.280392 35.17128 L-86.448691 35.828483 L-86.86011 36.127561 L-86.890844 36.410616 L-87.311334 36.351027 L-87.449789 36.468784 L-87.704807 36.768989 L-87.660353 36.914715 L-88.37268 37.308346 L-89.58346 38.795001 L-91.845756 38.740912 L-92.209249 39.393676 L-91.527945 39.814294 L-90.999322 41.121801 L-91.975061 40.139327 L-92.418821 40.156261 L-91.629529 41.430864 L-91.78038 41.889395 L-91.633297 43.095461 L-90.831909 43.845776 L-90.894118 44.483872 L-90.36665 45.801629 L-89.843041 46.619303 L-89.847437 47.377564 L-89.40124 48.334815 L-89.167623 48.501469 L-88.831981 50.46834 L-88.437069 50.4589 L-88.121271 52.577153 L-88.278727 52.871064 L-87.427385 53.364471 L-86.660185 54.285814 L-86.454697 54.322655 L-85.857238 55.355706 L-85.323941 55.721437 L-85.730512 56.418329 L-85.907231 58.061304 L-85.548853 58.28716 L-85.331892 58.892904 L-83.911742 59.6046 L-82.767611 59.658497 L-81.598699 59.505358 L-80.951175 59.222257 L-80.617488 59.301253 L-79.136103 58.724854 L-78.868774 58.776577 L-78.35091 59.054113 L-77.273138 61.008687 L-75.982112 60.24997 L-74.157991 59.974155 L-73.47278 59.64211 L-72.290656 59.373002 L-71.84206 58.998839 L-71.530098 58.319327 L-71.894958 57.267475 L-72.076212 55.594615 L-71.898798 54.757929 L-71.480876 54.239467 L-71.65485 53.601144 L-71.474373 52.853964 L-70.212593 52.782854 L-69.31334 52.559296 L-68.841789 52.150453 L-67.998645 51.893955 L-68.209129 48.50404 L-67.480664 48.931073 L-66.693713 49.004433 L-65.570378 48.725297 L-63.591571 48.654075 L-63.444627 49.384889 L-63.038697 49.20091 L-62.51218 48.648464 L-62.678392 48.422267 L-62.051799 48.079272 L-61.945567 48.147889 L-61.571509 49.50668 L-61.641373 49.900457 L-61.549156 49.845272 L-61.399345 50.22971 L-61.379986 50.370088 L-61.517021 50.394915 L-60.984632 51.353724 L-61.390883 52.618998 L-61.242913 54.669068 L-62.418831 56.592831 L-62.547996 57.214329 L-63.581519 58.264829 L-63.301357 59.404699 L-63.056319 59.780791 L-63.208004 61.739912 L-62.875632 62.767697 L-62.567341 62.904846 L-62.169715 63.61878 L-62.200942 63.82274 L-62.667868 64.20581 L-62.73067 65.166593 L-62.985484 65.480548 L-62.874285 66.105205 L-63.095282 67.175144 L-62.91787 67.606168 L-63.194183 68.998548 L-61.80528 69.787767 L-61.542014 69.668301 L-60.935751 70.005503 L-60.402043 70.438134 L-60.222957 71.04118 L-57.98914 71.434028 L-57.50657 71.782152 L-57.103566 72.853146 L-56.282845 73.582466 L-56.06688 74.007732 L-55.855881 73.918029 L-55.66473 74.047521 L-55.17858 73.84313 L-54.884509 74.583821 L-53.758247 74.344465 L-52.727748 74.563433 L-51.348487 73.429175 L-50.446142 72.91821 L-50.34953 72.571742 L-50.014664 72.52767 L-50.074117 72.316359 L-49.875982 72.436639 L-49.376747 72.212616 L-49.365061 72.485205 L-49.867761 72.857619 L-49.697127 73.424658 L-49.843679 74.479125 L-49.640593 75.087595 L-49.87697 76.739411 L-50.172523 77.767485 L-50.620258 78.472338 L-50.39365 78.713008 L-49.476649 78.676924 L-49.459173 79.006907 L-47.776953 79.43579 L-47.848467 79.525078 L-47.166141 79.763617 L-46.2171 79.862417 L-46.24726 80.25048 L-46.49112 80.503678 L-46.465939 80.924499 L-46.988141 81.542187 L-47.305022 82.530284 L-47.200742 82.907263 L-46.868719 83.031543 L-46.878524 83.532513 L-46.709492 83.896997 L-46.408052 83.873385 L-46.661043 83.96207 L-46.763725 84.191035 L-46.950505 84.826636 L-46.911444 85.298191 L-47.338292 86.13347 L-46.801816 86.472341 L-46.843614 86.69351 L-46.616421 86.867353 L-46.906496 87.260345 L-46.802359 87.792183 L-46.357537 87.993246 L-46.059609 88.138691 L-46.068407 88.81015 L-45.748668 89.052611 L-45.605255 89.677849 L-45.312598 89.867943 L-45.18329 90.271245 L-44.828963 90.249526 L-44.540673 90.721438 L-43.677738 90.94312 L-43.333163 90.893406 L-42.651885 91.318476 L-43.004184 92.070571 L-43.084282 93.288006 L-41.048276 93.486764 L-39.990581 94.414264 L-39.80481 94.972145 L-39.832481 96.406503 L-39.596079 98.013982 L-40.2219 98.649421 L-40.218525 99.903721 L-40.325856 100.24148 L-40.671518 100.56061 L-40.719369 100.99936 L-41.982514 101.80479 L-42.360827 102.75172 L-42.725803 104.65826 L-43.249515 105.16286 L-43.380769 106.66839 L-43.043621 107.02269 L-42.942933 108.59283 L-44.248393 109.95629 L-44.24649 110.65116 L-43.635708 111.48417 L-43.933764 112.23261 L-43.950075 113.05 L-44.321261 113.39676 L-44.641744 114.34013 L-45.346874 115.17707 L-45.354679 115.95219 L-45.687212 116.23096 L-44.75289 116.52163 L-43.795966 116.20765 L-42.430667 116.34042 L-40.262498 117.07859 L-39.420925 117.18603 L-38.246738 116.68611 L-36.165986 117.09435 L-35.662019 116.97164 L-35.019059 116.50915 L-34.493914 117.74653 L-35.216387 118.02704 L-35.164936 118.20279 L-35.447834 118.489 L-35.470308 118.97913 L-35.208005 118.98477 L-35.246982 119.83132 L-34.857815 120.36643 L-34.840763 120.74937 L-33.889041 120.94121 L-33.87239 121.12442 L-33.642882 121.03678 L-33.269653 121.46821 L-33.188528 123.50163 L-33.399959 123.6494 L-32.186921 125.42795 L-31.961952 125.32637 L-31.925107 125.55623 L-31.703428 125.3062 L-30.509992 124.70745 L-30.754987 124.30273 L-30.521885 124.09186 L-30.284612 124.28576 L-30.052415 124.00334 L-30.183935 123.94232 L-29.855178 122.63761 L-30.141391 122.35723 L-30.012419 121.98576 L-30.229081 121.93963 L-30.237053 121.66672 L-30.061474 121.64145 L-29.977456 121.34516 L-29.093067 122.46962 L-27.90142 123.25652 L-27.215606 123.41124 L-27.135841 123.60734 L-27.732716 123.8032 L-28.227594 124.21398 L-28.426097 125.23552 L-28.305747 125.55027 L-28.693867 125.91577 L-28.748179 126.38486 L-29.062472 126.52556 L-29.02488 126.71094 L-29.6354 127.5501 L-29.612045 127.94486 L-29.868366 128.09329 L-30.169225 128.59995 L-30.757522 128.51144 L-30.983714 128.66193 L-31.918099 128.73513 L-32.714531 129.0987 L-32.62573 130.12435 L-32.297265 131.03997 L-32.020152 132.75963 L-32.295271 133.53054 L-32.065004 134.60723 L-32.224219 134.68082 L-31.922962 135.17994 L-31.814725 135.81882 L-32.052313 136.1143 L-32.169606 135.99698 L-32.33892 136.15559 L-32.396122 136.4629 L-32.689963 136.77751 L-32.56104 136.95847 L-32.67443 137.08435 L-32.842334 136.92856 L-33.105783 137.97171 L-32.447224 138.39289 L-31.306285 140.1532 L-30.902636 141.1007 L-30.685005 142.34933 L-30.737428 143.10072 L-30.437962 144.25962 L-29.775113 144.83265 L-29.146421 146.27712 L-28.820215 146.64292 L-28.183 146.87695 L-27.334202 146.12951 L-27.123566 146.41618 L-27.200702 146.89944 L-26.912182 147.42793 L-26.02665 148.02358 L-25.727539 147.96391 L-25.509562 148.15469 L-25.664966 148.67419 L-25.607293 149.13524 L-23.726167 150.27889 L-23.331986 149.65519 L-21.871094 148.84848 L-21.679266 148.19642 L-21.251424 148.2136 L-20.507162 147.94355 L-19.066658 148.51012 L-18.770728 148.91984 L-18.672972 149.41396 L-18.7241 151.14014 L-18.280347 152.02676 L-16.870335 152.6057 L-16.816517 153.42398 L-16.668302 153.60477 L-15.861527 153.62872 L-14.651174 154.1526 L-14.103285 154.33636 L-13.557923 154.27294 L-13.14307 154.10687 L-12.762561 153.64354 L-11.654503 153.79122 L-11.03015 153.49169 L-10.270621 153.64057 L-9.5649246 153.26983 L-8.7045054 153.53354 L-8.4038736 153.96075 L-8.3556154 154.31595 L-7.3200859 155.12238 L-7.375116 155.45558 L-7.9795124 156.32096 L-7.7511507 157.06536 L-5.860192 158.41956 L-5.2879013 157.7157 L-5.2524328 156.44006 L-5.0410917 155.9925 L-4.4789926 155.55886 L-3.6272613 154.47201 L-3.3047983 153.11255 L-2.9780888 152.24989 L-2.7436563 152.08001 L-0.50850379 152.81776 L0.43501506 154.39419 L0.88048481 154.55697 L1.4234988 155.16617 L-0.39788963 157.45246 L-0.92656758 157.65705 L-1.0459821 157.94913 L-0.91547474 159.09564 L-1.0261041 159.37616 L-2.0786979 160.19771 L-2.3219376 160.94546 L-1.6610719 161.59644 L-1.1604175 161.79002 L-0.22231301 163.34165 L-0.017409709 164.13347 L-0.054141525 164.75883 L0.26673518 165.73321 L-0.08752913 166.25979 L-0.32605722 167.58171 L-1.2768632 169.46351 L-2.0203192 169.68557 L-1.9289933 170.20848 L-2.1695853 170.95945 L-2.4506762 171.16918 L-2.928704 170.98807 L-3.4560844 171.01159 L-4.8441127 171.75914 L-6.2438387 172.28807 L-6.8004196 173.28845 L-6.9805278 173.98601 L-7.8566636 173.61747 L-7.9949584 173.24911 L-8.7179392 173.17408 L-10.077116 173.86812 L-10.064175 174.40462 L-10.835985 174.83261 L-11.214954 176.16614 L-11.717219 177.04109 L-11.732055 177.24445 L-11.150766 177.75229 L-11.428359 178.78772 L-11.288485 179.74949 L-11.954717 180.37732 L-12.359279 180.54126 L-13.514096 182.571 L-13.826164 183.6988 L-14.383301 184.30513 L-14.257804 184.93726 L-13.795396 185.61873 L-14.174614 186.71535 L-14.221756 187.39935 L-14.524818 188.02918 L-14.426321 188.58242 L-15.111163 189.17705 L-14.998832 190.02348 L-15.541536 190.52337 L-16.670874 190.14662 L-17.165114 190.52344 L-17.536275 191.35926 L-17.910789 191.71448 L-18.649531 192.14152 L-19.120263 192.22353 L-20.427627 193.0674 L-21.195737 194.07772 L-21.606154 194.38578 L-21.788657 194.4455 L-22.087446 194.13268 L-22.024002 194.95741 L-20.792039 196.18225 L-20.901691 196.38673 L-20.84173 197.37374 L-19.919123 198.62159 L-19.806704 199.29925 L-19.95404 199.59931 L-19.232173 200.37385 L-19.175646 201.74411 L-18.394334 202.13821 L-17.445917 201.97862 L-16.743657 202.91328 L-15.896563 203.03576 L-15.428075 203.29417 Z "  stroke="none" fill="#FFFFFF" fill-rule="evenodd" fill-opacity="1"/>
</g>
</g>
</g>
<!-- Begin_Label-->
<clipPath id="cp_3">
<path d="M787.39998 590.55 L787.39998 0 L1.5018463e-05 0 L1.5018463e-05 590.55 Z " />
</clipPath>
<g clip-path="url(#cp_3)">
<g id="EmbdFile__1" transform="matrix(1 0 0 1 1.5018463e-05 -1.1811e-05)">
<g>
<g color-interpolation="linearRGB" transform="scale(1,1)">
</g>
</g>
</g>
</g>
<!-- End_Label-->
</g>
</g>
</svg>
